<svg width="128" height="128" viewBox="0 0 128 128" fill="none" xmlns="http://www.w3.org/2000/svg">
<path d="M56.1084 8.19129C61.2573 5.25664 67.5768 5.27057 72.7129 8.22742L111.699 30.6737C113.549 31.7388 114.68 33.4242 115.099 35.2489L115.328 53.4491C115.328 56.0221 113.947 58.398 111.711 59.6708L103.497 64.3436L111.699 69.0663C113.407 70.0496 114.501 71.5623 114.989 73.2245L115.328 91.3593C115.328 93.9323 113.947 96.3082 111.711 97.5809L72.6396 119.814C67.5417 122.715 61.2936 122.729 56.1826 119.851L16.6465 97.5887C14.3944 96.3205 13.0001 93.9371 13 91.3524L13.3564 73.2792C13.7968 71.7335 14.7612 70.3142 16.252 69.3231L16.6904 69.0516L24.9404 64.3485L16.6465 59.6786C14.3944 58.4103 13.0001 56.0269 13 53.4423L13.25 35.3065C13.6271 33.5998 14.6272 32.0107 16.252 30.9305L16.6904 30.6591L56.1084 8.19129ZM17.7725 91.3524L17.7773 91.5136C17.8313 92.3119 18.284 93.0343 18.9873 93.4305L58.5244 115.693C62.0612 117.685 66.3598 117.738 69.9355 115.855L70.2793 115.667L109.351 93.4335C110.049 93.0357 110.497 92.3146 110.551 91.5194L110.557 91.3593V82.121L86.1182 95.9423L71.0801 104.886C67.094 107.255 62.1646 107.34 58.1094 105.137L57.7197 104.917L41.791 95.5458L17.7725 82.0936V91.3524ZM19.0547 73.1981C18.0112 73.7934 17.6461 74.9791 17.958 75.9872L44.1807 91.4139L58.5508 99.4608C62.1878 101.497 66.6247 101.488 70.2529 99.4364L83.707 91.8251L110.418 75.9432C110.692 74.9964 110.376 73.904 109.464 73.2928L109.319 73.204L98.6855 67.0809L72.6396 81.9042C67.5417 84.8052 61.2936 84.8192 56.1826 81.9413L29.7881 67.079L19.0547 73.1981ZM102.826 48.0995L102.769 48.1327L89.2754 56.1552H89.2764L84.5713 58.953H84.5703L71.0801 66.9755C67.094 69.3453 62.1646 69.4303 58.1094 67.2264L57.7197 67.0067L44.0381 58.9559H44.0361L39.293 56.1659H39.2949L24.7871 47.6298L24.7422 47.6044L17.7725 43.5038V53.4432L17.7773 53.6034C17.8279 54.352 18.2289 55.0344 18.8584 55.4432C18.9002 55.4704 18.9435 55.4967 18.9873 55.5214L58.5244 77.7841C60.2929 78.7798 62.2521 79.2904 64.2158 79.3173C64.3385 79.3189 64.4613 79.3194 64.584 79.3173C65.32 79.3046 66.055 79.2238 66.7793 79.0751C66.9004 79.0502 67.0212 79.0236 67.1416 78.995C68.1025 78.7664 69.0417 78.4168 69.9355 77.9462L70.2793 77.7567L109.351 55.5233C109.481 55.4488 109.603 55.363 109.716 55.2675C109.753 55.2356 109.79 55.2028 109.825 55.1688C109.896 55.1008 109.962 55.0287 110.023 54.953C110.085 54.8774 110.141 54.798 110.192 54.7157C110.398 54.3863 110.524 54.0069 110.551 53.6093L110.557 53.4501V43.5038L102.826 48.0995ZM63.8535 10.7831C63.7297 10.7885 63.606 10.7962 63.4824 10.8055C63.2351 10.8242 62.9882 10.8506 62.7422 10.8846C62.25 10.9528 61.761 11.0516 61.2783 11.1815C60.4338 11.4088 59.6085 11.731 58.8184 12.1473L58.4717 12.3368L19.0547 34.8046C19.0089 34.8307 18.9641 34.8582 18.9209 34.8866C18.9052 34.8969 18.8903 34.9083 18.875 34.9188C18.853 34.934 18.8309 34.949 18.8096 34.9647C18.7441 35.0131 18.6818 35.0638 18.623 35.1171C18.6181 35.1216 18.6133 35.1262 18.6084 35.1307C18.4869 35.2428 18.3803 35.3652 18.2881 35.495C18.2817 35.504 18.2758 35.5133 18.2695 35.5223C17.9422 35.9971 17.8073 36.5698 17.8643 37.1259C17.865 37.1327 17.8654 37.1395 17.8662 37.1464C17.9461 37.8657 18.347 38.5538 19.0693 38.9589L32.2705 46.3514L44.498 53.1991V53.1981L49.3594 55.9208V55.9218L58.5508 61.0682C62.1878 63.1047 66.6247 63.0958 70.2529 61.0438L79.3047 55.9218L84.1299 53.1932L100.393 43.994L100.408 43.9843L109.303 38.953C109.709 38.723 110.012 38.403 110.214 38.0389C110.222 38.0246 110.23 38.0104 110.237 37.996C110.3 37.8768 110.352 37.7534 110.394 37.6268C110.401 37.6041 110.408 37.5814 110.415 37.5585C110.432 37.499 110.448 37.4392 110.461 37.3788C110.464 37.3645 110.466 37.3501 110.469 37.3358C110.479 37.283 110.487 37.2299 110.493 37.1766C110.495 37.1587 110.499 37.1409 110.501 37.1229C110.508 37.0577 110.511 36.9922 110.513 36.9266C110.513 36.9117 110.513 36.8967 110.513 36.8817C110.513 36.7441 110.502 36.6066 110.479 36.4706C110.476 36.4579 110.474 36.4452 110.472 36.4325C110.446 36.2972 110.41 36.1639 110.361 36.0341C110.356 36.0204 110.351 36.0067 110.346 35.993C110.264 35.7871 110.154 35.5908 110.014 35.411C110.005 35.4004 109.997 35.3902 109.988 35.3798C109.895 35.2641 109.789 35.1559 109.67 35.0565C109.667 35.0537 109.664 35.0505 109.66 35.0477C109.598 34.9962 109.533 34.9465 109.464 34.9003L109.319 34.8104L70.332 12.3622C70.1101 12.2344 69.885 12.1142 69.6572 12.0018C69.2014 11.7769 68.7344 11.583 68.2598 11.4198C68.0224 11.3382 67.783 11.2643 67.542 11.1981C67.0601 11.0657 66.5718 10.9642 66.0801 10.8934C65.8341 10.8581 65.5872 10.8304 65.3398 10.8104C65.0925 10.7905 64.8446 10.7788 64.5967 10.7743C64.3489 10.7698 64.1011 10.7722 63.8535 10.7831Z" fill="black"/>
<path fill-rule="evenodd" clip-rule="evenodd" d="M64.7169 38.5778C64.9714 38.4729 65.2634 38.4904 65.5056 38.6302L70.7413 41.6535C71.0178 41.8133 71.1885 42.1089 71.1887 42.4282C71.1885 42.7477 71.018 43.0444 70.7413 43.2042L62.8866 47.7385C62.61 47.8979 62.2685 47.898 61.9919 47.7385L56.7562 44.7152C56.4796 44.5555 56.3091 44.2599 56.3089 43.9405C56.3089 43.6208 56.4794 43.3255 56.7562 43.1657L64.6109 38.6302L64.7169 38.5778ZM58.9931 43.9393L62.4381 45.9292L68.5033 42.4282L65.0571 40.4384L58.9931 43.9393Z" fill="black"/>
<path d="M52.9373 32.409C53.1843 31.9811 53.7315 31.8336 54.1594 32.0804L56.7772 33.5926C57.0539 33.7525 57.2246 34.0478 57.2246 34.3674C57.2244 34.6868 57.0539 34.9824 56.7772 35.1421L50.2647 38.9005L51.5416 39.638L51.6184 39.6881C51.9857 39.9533 52.1001 40.4592 51.8689 40.8601C51.6373 41.261 51.1418 41.415 50.7284 41.2294L50.6468 41.1886L45.41 38.1654L45.3331 38.1153C44.9655 37.8501 44.8513 37.3444 45.0826 36.9433C45.3143 36.542 45.8095 36.388 46.2232 36.574L46.3047 36.6159L48.5882 37.9335C48.6636 37.8099 48.7673 37.7012 48.9016 37.6236L54.5403 34.3674L53.2646 33.6311L53.1877 33.581C52.8201 33.3159 52.7062 32.8101 52.9373 32.409Z" fill="black"/>
<path d="M78.2476 30.8967C78.4794 30.4957 78.9746 30.3414 79.3882 30.5274L79.4697 30.5694L82.0875 32.0804C82.364 32.2402 82.5347 32.5358 82.5349 32.8552C82.5348 33.1747 82.3643 33.4713 82.0875 33.6311L75.5738 37.3895L76.8507 38.1269L76.9276 38.177C77.2952 38.4424 77.4097 38.948 77.1781 39.3491C76.931 39.7766 76.3838 39.9231 75.956 39.6764L70.7203 36.6532L70.6434 36.6042C70.2753 36.3391 70.1603 35.8324 70.3918 35.4311C70.6235 35.0298 71.1198 34.8756 71.5335 35.0617L71.6151 35.1037L73.8974 36.4213C73.9728 36.2978 74.0766 36.1889 74.2108 36.1114L79.8495 32.8552L78.575 32.1189L78.4981 32.0699C78.1299 31.8048 78.0161 31.2981 78.2476 30.8967Z" fill="black"/>
<path fill-rule="evenodd" clip-rule="evenodd" d="M67.2287 24.0196C67.5055 23.8598 67.8466 23.8598 68.1235 24.0196L73.3603 27.0428C73.6367 27.2027 73.8077 27.4982 73.8077 27.8176C73.8074 28.1369 73.6368 28.4326 73.3603 28.5923L65.5056 33.1266C65.229 33.2863 64.8876 33.2861 64.6109 33.1266L59.3741 30.1034C59.0974 29.9436 58.9269 29.6481 58.9267 29.3286C58.9268 29.0091 59.0973 28.7137 59.3741 28.5539L67.2287 24.0196ZM61.6098 29.3286L65.0583 31.3185L71.1234 27.8164L67.6749 25.8265L61.6098 29.3286Z" fill="black"/>
</svg>
