<svg width="48" height="48" viewBox="0 0 48 48" fill="none" xmlns="http://www.w3.org/2000/svg">
<g clip-path="url(#clip0_325_61)">
<mask id="mask0_325_61" style="mask-type:luminance" maskUnits="userSpaceOnUse" x="9" y="7" width="39" height="34">
<path d="M9.08521 7H48V40.9468H9.08521V7Z" fill="white"/>
</mask>
<g mask="url(#mask0_325_61)">
<path d="M28.5426 7.00067L48 40.9468H9.08521L28.5426 7.00067Z" fill="#C30F2E"/>
</g>
<mask id="mask1_325_61" style="mask-type:luminance" maskUnits="userSpaceOnUse" x="0" y="12" width="34" height="30">
<path d="M0 12.0571H33.1187V41.0358H0V12.0571Z" fill="white"/>
</mask>
<g mask="url(#mask1_325_61)">
<path d="M16.559 12.0571L33.118 41.0358H0L16.559 12.0571Z" fill="#DD0330"/>
</g>
<path d="M44.7006 32.3681H3.40631V31.9147H44.7006V32.3681Z" fill="white"/>
<mask id="mask2_325_61" style="mask-type:luminance" maskUnits="userSpaceOnUse" x="5" y="23" width="38" height="17">
<path d="M5.14606 23.5445H42.2459V39.069H5.14606V23.5445Z" fill="white"/>
</mask>
<g mask="url(#mask2_325_61)">
<path d="M38.3213 39.0007C38.1598 39.0007 38.008 38.9338 37.881 38.8068C37.1226 38.0449 37.0895 34.947 37.126 30.3075C37.1468 27.7721 37.1744 24.2995 36.77 24.0255C36.3752 24.189 36.3359 27.0578 36.3103 28.957C36.28 31.1667 36.2489 33.453 35.8901 34.6172C35.7831 34.9622 35.6451 35.2783 35.3677 35.2528C34.9764 35.2182 34.8501 34.6006 34.5582 32.1632C34.4367 31.1508 34.3111 30.1046 34.1641 29.6995C34.1448 29.6484 34.1282 29.6077 34.1138 29.576C33.9571 29.93 33.7763 30.903 33.6507 31.5787C33.4768 32.5117 33.3125 33.3929 33.1069 33.7773C32.9482 34.0727 32.6963 34.4578 32.3443 34.3832C31.8647 34.2825 31.7212 33.3156 31.6784 32.7484C31.6784 27.9756 31.0538 27.4201 30.9289 27.3573L30.9089 27.3725L30.8786 27.3656C30.4328 27.5602 30.4086 29.1081 30.3858 30.6049C30.3679 31.7029 30.3486 32.9471 30.1885 34.1113C29.9807 35.6206 29.7295 35.9118 29.4169 35.8938C28.6972 35.8448 28.6764 33.366 28.6764 33.0838C28.6764 32.9954 28.6785 32.8912 28.6813 32.776C28.6951 32.199 28.7199 31.1259 28.3652 30.7878C28.3183 30.7429 28.252 30.6912 28.2003 30.7057C27.9477 30.7692 27.6855 31.5897 27.5985 31.8595C27.5709 31.9451 27.5488 32.0155 27.5302 32.0638C27.5157 32.1038 27.4971 32.1604 27.475 32.2287C27.2838 32.8091 27.0664 33.3881 26.6952 33.5309C26.5578 33.5841 26.4143 33.5723 26.2797 33.4964C26.101 33.395 25.9554 33.188 25.8194 32.8436C25.7449 32.6531 25.6814 32.4599 25.6165 32.266C25.5379 32.0293 25.4571 31.7843 25.3571 31.5517C25.2784 31.3709 25.0824 31.2895 24.8326 31.3337C24.3136 31.4261 24.2267 31.9506 24.1535 32.7401C24.1404 32.8774 24.128 33.012 24.1107 33.139C24.1087 33.1762 24.0169 34.3349 23.9582 34.7034C23.796 35.7137 23.5828 36.1119 23.2288 36.0829C22.3551 36.0084 21.9542 32.1763 21.9756 30.5573C21.9921 29.3213 21.7685 28.87 21.6346 28.7982C21.6208 28.792 21.5994 28.7803 21.5484 28.8162C21.3903 28.9231 21.2496 29.2565 21.293 29.6063C21.774 33.4164 21.4193 37.7799 20.5505 38.7626C20.2765 39.0718 19.9039 39.0676 19.6444 38.8068C18.8853 38.0449 18.8535 34.947 18.8894 30.3075C18.9101 27.772 18.937 24.2995 18.5333 24.0255C18.1386 24.189 18.0999 27.0578 18.0737 28.9569C18.0434 31.1667 18.0123 33.453 17.6528 34.6172C17.5458 34.9622 17.4078 35.2783 17.131 35.2527C16.7391 35.2182 16.6135 34.6006 16.3209 32.1632C16.1994 31.1508 16.0738 30.1046 15.9268 29.6995C15.9082 29.6484 15.8916 29.6077 15.8764 29.576C15.7205 29.93 15.5397 30.903 15.4141 31.5786C15.2402 32.5117 15.0759 33.3929 14.8696 33.7773C14.7109 34.0727 14.459 34.4577 14.1077 34.3832C13.6281 34.2825 13.4845 33.3156 13.4418 32.7484C13.4411 27.9756 12.8172 27.4201 12.6923 27.3573L12.6723 27.3725L12.6412 27.3656C12.1961 27.5602 12.172 29.1081 12.1485 30.6049C12.1313 31.7028 12.1119 32.9471 11.9518 34.1113C11.7441 35.6206 11.495 35.9145 11.181 35.8938C10.4598 35.8448 10.4391 33.366 10.4391 33.0837C10.4391 32.9954 10.4419 32.8912 10.4446 32.776C10.4584 32.199 10.4833 31.1259 10.1286 30.7878C10.0816 30.7429 10.0154 30.6912 9.96364 30.7057C9.71106 30.7691 9.44814 31.5897 9.36256 31.8595C9.33496 31.9444 9.31149 32.0155 9.29424 32.0638C9.27907 32.1031 9.26043 32.1597 9.23835 32.228C9.04719 32.8084 8.82981 33.3881 8.45922 33.5309C8.3212 33.5841 8.17697 33.5723 8.04309 33.4964C7.86435 33.395 7.71805 33.1879 7.58279 32.8436C7.50826 32.6531 7.44408 32.4599 7.3799 32.266C7.30123 32.0293 7.2198 31.7843 7.11974 31.5517C7.04175 31.3709 6.84507 31.2895 6.59526 31.3336C5.99763 31.4399 5.85616 32.1811 5.74229 33.0658L5.72228 33.2231L5.27026 33.1631L5.29166 33.0085C5.39034 32.2328 5.54078 31.0604 6.5159 30.8878C6.97481 30.8064 7.37576 30.9969 7.53725 31.3723C7.64559 31.6235 7.73047 31.8774 7.81191 32.1238C7.87263 32.3094 7.93475 32.4951 8.00652 32.6787C8.1328 32.9989 8.2308 33.0817 8.26737 33.1017C8.4958 33.0306 8.72905 32.3205 8.80634 32.0865C8.8305 32.0113 8.8512 31.9492 8.86776 31.905C8.88363 31.8616 8.90434 31.7981 8.92918 31.7215C9.13483 31.0783 9.39293 30.382 9.85116 30.2661C9.99125 30.2302 10.2079 30.235 10.4433 30.46C10.9429 30.9368 10.9167 32.05 10.8994 32.787C10.8967 32.8974 10.8939 32.9982 10.8939 33.0837C10.8939 34.2597 11.0685 35.0816 11.2017 35.3638C11.2707 35.2196 11.3887 34.8704 11.5012 34.0499C11.6572 32.9126 11.6772 31.6828 11.6937 30.598C11.7241 28.6781 11.7455 27.2862 12.4404 26.9591C12.5439 26.8956 12.7158 26.8611 12.8973 26.9529C13.5694 27.291 13.8958 29.1812 13.8958 32.7311C13.9379 33.2797 14.0856 33.8573 14.2071 33.9401C14.2078 33.9277 14.3065 33.867 14.4686 33.5633C14.6418 33.2411 14.8144 32.3136 14.9662 31.4958C15.3023 29.6933 15.4548 29.0604 15.8523 29.0273C16.1552 28.9976 16.2953 29.3827 16.354 29.5449C16.5196 29.999 16.6425 31.0238 16.7722 32.1093C16.8736 32.9512 17.0179 34.1534 17.1649 34.6399C17.1807 34.5971 17.1987 34.5461 17.218 34.4833C17.5582 33.3812 17.5893 31.1294 17.6189 28.9507C17.6604 25.9246 17.7135 24.0496 18.2656 23.6583C18.3884 23.5714 18.5382 23.55 18.6845 23.599C19.3311 23.8136 19.3808 25.7093 19.3442 30.3116C19.318 33.6489 19.2855 37.8026 19.9674 38.4872C20.0267 38.5473 20.0688 38.5473 20.084 38.5473C20.1157 38.5473 20.1613 38.5169 20.2096 38.4624C20.8997 37.6819 21.3365 33.5834 20.8417 29.6636C20.7803 29.1757 20.9687 28.6629 21.2903 28.4421C21.4676 28.32 21.6719 28.3041 21.8486 28.3986C22.2509 28.6126 22.4462 29.3406 22.4303 30.5635C22.402 32.6987 22.9148 35.1975 23.2495 35.5964C23.3026 35.5081 23.4075 35.2658 23.5083 34.6316C23.5649 34.2811 23.658 33.1031 23.6594 33.0913C23.676 32.9581 23.6884 32.8291 23.7001 32.698C23.7691 31.9623 23.854 31.0472 24.7525 30.8878C25.2107 30.8064 25.6117 30.9962 25.7739 31.3723C25.8822 31.6235 25.9664 31.8774 26.0478 32.1238C26.11 32.3094 26.1721 32.4951 26.2438 32.6786C26.3694 32.9988 26.4681 33.0817 26.504 33.1017C26.7324 33.0306 26.9664 32.3205 27.043 32.0872C27.0678 32.012 27.0885 31.9492 27.1044 31.905C27.1209 31.8623 27.141 31.7981 27.1651 31.7215C27.3715 31.0783 27.6296 30.382 28.0885 30.266C28.2272 30.2302 28.4446 30.235 28.6799 30.46C29.1795 30.9368 29.1533 32.05 29.1367 32.787C29.1333 32.8974 29.1305 32.9982 29.1305 33.0837C29.1305 34.2597 29.3051 35.0816 29.4383 35.3638C29.5066 35.2196 29.6246 34.8704 29.7385 34.0499C29.8945 32.9126 29.9131 31.6828 29.931 30.598C29.9607 28.6781 29.9821 27.2862 30.677 26.9591C30.7806 26.8956 30.9524 26.8611 31.1346 26.9529C31.806 27.291 32.1331 29.1812 32.1331 32.7311C32.1752 33.2797 32.3229 33.8573 32.4437 33.9401C32.4451 33.9277 32.5424 33.867 32.7059 33.5633C32.8791 33.2411 33.051 32.3136 33.2035 31.4958C33.5382 29.6933 33.6914 29.0604 34.0889 29.0273C34.3925 28.9976 34.5326 29.3827 34.5913 29.5449C34.7562 29.999 34.8791 31.0238 35.0102 32.1093C35.1102 32.9512 35.2545 34.1534 35.4022 34.6399C35.4173 34.5971 35.4353 34.546 35.4546 34.4832C35.7948 33.3812 35.8252 31.1294 35.8556 28.9507C35.8963 25.9246 35.9501 24.0496 36.5022 23.6583C36.6257 23.5714 36.7748 23.55 36.9211 23.599C37.5684 23.8136 37.6181 25.7093 37.5808 30.3116C37.5546 33.6489 37.5222 37.8026 38.2033 38.4872C38.264 38.5473 38.3054 38.5473 38.3213 38.5473C38.3523 38.5473 38.3979 38.5169 38.4455 38.4624C39.137 37.6819 39.5731 33.5834 39.0783 29.6636C39.0141 29.1529 39.1591 28.6381 39.4234 28.44C39.5566 28.3393 39.7187 28.3186 39.8678 28.3814C40.2529 28.5456 40.5137 29.2495 40.6656 30.5345C40.7291 31.0728 40.7856 31.6545 40.8402 32.2287C40.9602 33.4819 41.1231 35.1706 41.3432 35.5419C41.4109 35.4556 41.5489 35.2223 41.7539 34.5971L42.1865 34.7386C41.8684 35.7054 41.6193 36.0698 41.2949 36.0325C40.7905 35.9766 40.6449 34.9573 40.3875 32.2722C40.3329 31.7008 40.277 31.1225 40.2135 30.5869C40.0203 28.9479 39.6918 28.7996 39.6884 28.7982C39.6242 28.8306 39.4751 29.1715 39.5303 29.6063C40.01 33.4163 39.6566 37.7806 38.7871 38.7626C38.647 38.9206 38.4897 39.0007 38.3213 39.0007Z" fill="white"/>
</g>
</g>
<defs>
<clipPath id="clip0_325_61">
<rect width="48" height="48" fill="white"/>
</clipPath>
</defs>
</svg>
