<svg width="48" height="48" viewBox="0 0 48 48" fill="none" xmlns="http://www.w3.org/2000/svg">
<mask id="mask0_200_15" style="mask-type:alpha" maskUnits="userSpaceOnUse" x="6" y="6" width="36" height="36">
<path fill-rule="evenodd" clip-rule="evenodd" d="M6 23.929C6 14.027 14.0588 6 24 6C33.9411 6 42 14.027 42 23.929C42 33.8309 33.9411 41.858 24 41.858H6V23.929ZM22.0539 20.0523C24.2034 20.0523 25.9461 21.788 25.9461 23.929C25.9461 26.0699 24.2034 27.8054 22.0539 27.8054C19.9046 27.8054 18.1619 26.0699 18.1619 23.9288C18.1619 21.788 19.9046 20.0523 22.0539 20.0523ZM37.6217 23.929C37.6217 21.788 35.8791 20.0523 33.7297 20.0523C31.5805 20.0523 29.8378 21.788 29.8378 23.929C29.8378 26.0699 31.5805 27.8054 33.7297 27.8054C35.8791 27.8054 37.6217 26.0702 37.6217 23.929Z" fill="white"/>
</mask>
<g mask="url(#mask0_200_15)">
<path fill-rule="evenodd" clip-rule="evenodd" d="M5.99997 23.929C5.99997 14.027 14.0588 6 23.9999 6C33.9411 6 42 14.027 42 23.929C42 33.8309 33.9411 41.858 23.9999 41.858H5.99997V23.929ZM22.0539 20.0523C24.2034 20.0523 25.946 21.788 25.946 23.929C25.946 26.0699 24.2034 27.8054 22.0539 27.8054C19.9045 27.8054 18.1619 26.0699 18.1619 23.9288C18.1619 21.788 19.9045 20.0523 22.0539 20.0523ZM37.6217 23.929C37.6217 21.788 35.8791 20.0523 33.7297 20.0523C31.5805 20.0523 29.8378 21.788 29.8378 23.929C29.8378 26.0699 31.5805 27.8054 33.7297 27.8054C35.8791 27.8054 37.6217 26.0702 37.6217 23.929Z" fill="black"/>
<path d="M5.99999 41.8579H5.87131V41.9858H5.99999V41.8579ZM23.9999 5.87177C13.9878 5.87177 5.87131 13.9562 5.87131 23.9292H6.12866C6.12866 14.0978 14.1299 6.12811 23.9999 6.12811V5.87177ZM42.1284 23.9289C42.1284 13.9562 34.0121 5.87177 23.9999 5.87177V6.12811C33.8701 6.12811 41.8713 14.0978 41.8713 23.9289H42.1284ZM23.9999 41.9858C34.0121 41.9858 42.1284 33.9016 42.1284 23.9289H41.8713C41.8713 33.76 33.8701 41.7297 23.9999 41.7297V41.9858ZM5.99999 41.9858H23.9999V41.7297H5.99999V41.9858ZM5.87131 23.9292V41.8579H6.12866V23.9292H5.87131ZM26.0744 23.9289C26.0744 21.7172 24.2744 19.9243 22.0539 19.9243V20.1804C24.1323 20.1804 25.8173 21.8585 25.8173 23.9289H26.0744ZM22.0539 27.9333C24.2744 27.9333 26.0744 26.1404 26.0744 23.9289H25.8173C25.8173 25.9991 24.1325 27.6772 22.0539 27.6772V27.9333ZM18.0334 23.9292C18.0334 26.1406 19.8334 27.9333 22.0539 27.9333V27.6772C19.9756 27.6772 18.2905 25.9993 18.2905 23.9292H18.0334ZM22.0539 19.9243C19.8334 19.9243 18.0334 21.7174 18.0334 23.9292H18.2905C18.2905 21.8587 19.9753 20.1804 22.0539 20.1804V19.9243ZM33.7299 20.1804C35.8085 20.1804 37.4933 21.8585 37.4933 23.9289H37.7504C37.7504 21.7172 35.9504 19.9243 33.7299 19.9243V20.1804ZM29.9665 23.9289C29.9665 21.8585 31.6516 20.1804 33.7299 20.1804V19.9243C31.5097 19.9243 29.7094 21.7172 29.7094 23.9289H29.9665ZM33.7297 27.6772C31.6513 27.6772 29.9665 25.9991 29.9665 23.9289H29.7094C29.7094 26.1404 31.5094 27.9333 33.7297 27.9333V27.6772ZM37.4933 23.9289C37.4933 25.9991 35.8083 27.6772 33.7297 27.6772V27.9333C35.9502 27.9333 37.7504 26.1404 37.7504 23.9289H37.4933Z" fill="black"/>
</g>
</svg>
