<svg width="48" height="48" viewBox="0 0 48 48" fill="none" xmlns="http://www.w3.org/2000/svg">
<path d="M24 4C13 4 4 13 4 24C4 35 13 44 24 44C35 44 44 35 44 24C44 13 35 4 24 4ZM12.8571 35.1429C9.85714 32.1429 8.28571 28.1429 8.28571 24.2857L23.8571 39.7143C19.8571 39.5714 15.8571 38.1429 12.8571 35.1429ZM27.4286 39.2857L8.71429 20.5714C10.2857 13.5714 16.5714 8.28571 24 8.28571C29.2857 8.28571 33.8571 10.8571 36.7143 14.7143L34.5714 16.5714C32.1429 13.2857 28.2857 11.1429 24 11.1429C18.4286 11.1429 13.7143 14.7143 11.8571 19.7143L28.2857 36.1429C32.4286 34.7143 35.5714 31.1429 36.5714 26.8571H29.7143V24H39.7143C39.7143 31.4286 34.4286 37.7143 27.4286 39.2857Z" fill="#663399"/>
</svg>
