<svg width="48" height="48" viewBox="0 0 48 48" fill="none" xmlns="http://www.w3.org/2000/svg">
<path d="M46 24C46 36.1501 36.1501 46 24 46C11.8497 46 2 36.1499 2 24C2 11.8497 11.8497 2 24 2C36.1501 2 46 11.8497 46 24Z" fill="#E04E39"/>
<path d="M15.5145 26.1259C15.0042 26.1266 14.5137 25.9279 14.1477 25.5723C13.7736 25.2098 13.5588 24.7135 13.5505 24.1927C13.5423 23.6718 13.7413 23.169 14.1038 22.7948L27.3628 9.11036C27.542 8.92383 27.7563 8.77452 27.9933 8.671C28.2304 8.56749 28.4855 8.51182 28.7441 8.50718C29.0028 8.50254 29.2597 8.54902 29.5004 8.64396C29.741 8.7389 29.9604 8.88042 30.1462 9.06041C30.332 9.2404 30.4804 9.45531 30.5828 9.69279C30.6853 9.93028 30.7399 10.1857 30.7434 10.4443C30.747 10.7029 30.6994 10.9597 30.6034 11.1999C30.5074 11.4401 30.365 11.659 30.1842 11.844L16.9254 25.5285C16.7424 25.7178 16.5231 25.8682 16.2807 25.9709C16.0382 26.0735 15.7778 26.1262 15.5145 26.1259ZM24.1616 26.6479C23.777 26.6477 23.401 26.5344 23.0804 26.3219C22.7598 26.1094 22.5089 25.8073 22.359 25.4531C22.209 25.099 22.1666 24.7085 22.2372 24.3304C22.3077 23.9523 22.488 23.6034 22.7556 23.3271L33.2272 12.519C33.5912 12.1576 34.0823 11.9534 34.5952 11.9502C35.1081 11.947 35.6018 12.1451 35.9702 12.502C36.3385 12.8589 36.5522 13.346 36.5653 13.8588C36.5783 14.3715 36.3897 14.8689 36.04 15.2441L25.5681 26.0522C25.3858 26.2409 25.1672 26.3909 24.9255 26.4932C24.6839 26.5956 24.4241 26.6482 24.1616 26.6479ZM19.9178 40.2751C19.4075 40.2758 18.9172 40.077 18.5514 39.7213C18.1772 39.3589 17.9624 38.8626 17.9541 38.3418C17.9457 37.8209 18.1447 37.318 18.5071 36.9438L36.8234 18.0395C37.1877 17.6732 37.6816 17.465 38.1982 17.4602C38.7148 17.4553 39.2126 17.6542 39.5836 18.0137C39.9546 18.3733 40.1691 18.8645 40.1806 19.381C40.192 19.8975 39.9995 20.3978 39.6448 20.7734L21.3287 39.6777C21.1457 39.867 20.9265 40.0174 20.6841 40.1201C20.4417 40.2227 20.181 40.2754 19.9178 40.2751ZM14.1705 36.9333C13.6602 36.934 13.1699 36.7354 12.8039 36.3798C12.6186 36.2003 12.4705 35.9861 12.368 35.7494C12.2655 35.5126 12.2107 35.258 12.2066 35.0001C12.2025 34.7422 12.2493 34.486 12.3443 34.2461C12.4392 34.0063 12.5805 33.7875 12.7601 33.6023L17.7533 28.4485C18.1175 28.082 18.6115 27.8738 19.1281 27.8689C19.6448 27.864 20.1426 28.0628 20.5136 28.4223C20.8847 28.7818 21.0992 29.2731 21.1107 29.7896C21.1222 30.3062 20.9296 30.8065 20.5749 31.1821L15.5814 36.3361C15.3984 36.5254 15.1792 36.6758 14.9368 36.7784C14.6944 36.881 14.4337 36.9337 14.1705 36.9333ZM10.1866 22.0213C9.80072 22.0213 9.42342 21.9077 9.10176 21.6946C8.7801 21.4815 8.52833 21.1783 8.37786 20.8231C8.2274 20.4678 8.18491 20.076 8.25569 19.6967C8.32648 19.3174 8.50741 18.9674 8.77589 18.6903L13.7694 13.5362C14.1331 13.1676 14.6278 12.9576 15.1456 12.9518C15.6635 12.946 16.1627 13.1449 16.5346 13.5052C16.9065 13.8656 17.1211 14.3583 17.1317 14.8761C17.1422 15.3938 16.9479 15.8948 16.5909 16.2701L11.5974 21.4239C11.4145 21.6131 11.1952 21.7636 10.9528 21.8662C10.7104 21.9689 10.4498 22.0216 10.1866 22.0213ZM35.8703 33.2439C35.36 33.2445 34.8696 33.0458 34.5037 32.6901C34.1296 32.3276 33.9147 31.8314 33.9065 31.3105C33.8983 30.7896 34.0973 30.2868 34.4598 29.9127L36.8236 27.4729C37.0031 27.2877 37.2173 27.1396 37.4541 27.0371C37.6908 26.9346 37.9454 26.8798 38.2033 26.8757C38.4612 26.8716 38.7174 26.9184 38.9573 27.0133C39.1971 27.1083 39.4159 27.2496 39.6011 27.4291C39.9752 27.7916 40.19 28.2879 40.1983 28.8087C40.2065 29.3296 40.0075 29.8324 39.645 30.2065L37.2811 32.6463C37.0982 32.8355 36.879 32.986 36.6365 33.0887C36.3941 33.1913 36.1335 33.2443 35.8703 33.2439ZM31.2674 38.1144C31.2674 38.3723 31.2166 38.6278 31.1179 38.8661C31.0191 39.1044 30.8744 39.321 30.692 39.5034C30.5096 39.6858 30.293 39.8304 30.0547 39.9291C29.8164 40.0278 29.5609 40.0786 29.3029 40.0786C28.9145 40.0785 28.5347 39.9633 28.2117 39.7474C27.8887 39.5316 27.637 39.2248 27.4884 38.8659C27.3398 38.507 27.3009 38.112 27.3767 37.731C27.4525 37.35 27.6396 37 27.9143 36.7254C28.189 36.4507 28.539 36.2636 28.92 36.1879C29.3011 36.1121 29.696 36.151 30.0549 36.2997C30.4138 36.4483 30.7206 36.7001 30.9364 37.0231C31.1522 37.3461 31.2674 37.7259 31.2674 38.1144ZM12.4947 29.3152C12.4974 29.5749 12.4486 29.8326 12.3512 30.0733C12.2537 30.3141 12.1094 30.5331 11.9267 30.7177C11.7441 30.9023 11.5266 31.0489 11.2869 31.1489C11.0472 31.2489 10.7901 31.3004 10.5303 31.3004C10.2706 31.3004 10.0135 31.2489 9.77379 31.1489C9.5341 31.0489 9.31663 30.9023 9.13395 30.7177C8.95127 30.5331 8.80702 30.3141 8.70953 30.0733C8.61204 29.8326 8.56326 29.5749 8.566 29.3152C8.57147 28.7979 8.78084 28.3035 9.14863 27.9396C9.51642 27.5757 10.0129 27.3715 10.5303 27.3715C11.0478 27.3715 11.5443 27.5757 11.9121 27.9396C12.2799 28.3035 12.4892 28.7979 12.4947 29.3152ZM21.8248 10.0407C21.8248 10.2987 21.774 10.5541 21.6753 10.7924C21.5766 11.0307 21.4319 11.2472 21.2495 11.4296C21.0671 11.612 20.8505 11.7567 20.6122 11.8554C20.3739 11.9541 20.1185 12.005 19.8606 12.005C19.472 12.005 19.0922 11.8898 18.7691 11.674C18.446 11.4581 18.1942 11.1513 18.0455 10.7924C17.8967 10.4334 17.8578 10.0384 17.9336 9.65731C18.0094 9.27622 18.1965 8.92617 18.4713 8.65142C18.746 8.37668 19.0961 8.18958 19.4771 8.11379C19.8582 8.03799 20.2532 8.07692 20.6122 8.22563C20.9712 8.37434 21.278 8.62616 21.4938 8.94925C21.7096 9.27233 21.8248 9.65217 21.8248 10.0407Z" fill="white"/>
</svg>
