<svg width="48" height="48" viewBox="0 0 48 48" fill="none" xmlns="http://www.w3.org/2000/svg">
<path d="M40.216 20.5524C42.1426 20.4599 43.8479 21.9543 44.0142 23.8825C44.7348 33.2107 36.1979 43.6603 24.1676 43.9944C14.0296 44.2446 4.00284 36.1282 4.00284 23.8559C4.00284 21.9218 5.60104 20.3539 7.52977 20.3539C9.4585 20.3539 11.022 21.9218 11.022 23.8559C11.022 31.9283 17.5128 37.1526 23.9959 36.9927C31.9768 36.7709 37.1651 29.8605 36.8952 24.2181C36.8027 22.2863 38.2896 20.6452 40.216 20.5524Z" fill="url(#paint0_linear_327_28)"/>
<path d="M31.4918 24.1273C31.4918 22.1473 33.107 20.5421 35.0993 20.5421H40.3566C42.3491 20.5421 44.0142 22.1473 44.0142 24.1273C44.0142 26.1075 42.3491 27.7127 40.3566 27.7127H35.0993C33.107 27.7127 31.4918 26.1075 31.4918 24.1273Z" fill="#00A672"/>
<path d="M20.4607 24.1325C20.4607 22.1495 22.0655 20.5421 24.043 20.5421C26.0206 20.5421 27.6254 22.1495 27.6254 24.1325C27.6254 26.1155 26.0206 27.7232 24.043 27.7232C22.0655 27.7232 20.4607 26.1155 20.4607 24.1325Z" fill="#00A672"/>
<path fill-rule="evenodd" clip-rule="evenodd" d="M27.5262 7.35671C27.6063 9.28913 26.1089 10.9207 24.1818 11.001C15.863 11.3474 10.7844 17.8857 11.0316 24.094C11.1086 26.0264 9.63996 27.6556 7.71275 27.7328C5.78556 27.81 4.0908 26.2503 4.01385 24.3178C3.61102 14.2009 12.0349 4.19949 23.892 4.00307C25.8191 3.92282 27.4462 5.4243 27.5262 7.35671Z" fill="#00A672"/>
<defs>
<linearGradient id="paint0_linear_327_28" x1="24.0298" y1="20.3539" x2="24.0298" y2="44.0001" gradientUnits="userSpaceOnUse">
<stop stop-color="#00583E"/>
<stop offset="1" stop-color="#00835C"/>
</linearGradient>
</defs>
</svg>
