<svg width="48" height="48" viewBox="0 0 48 48" fill="none" xmlns="http://www.w3.org/2000/svg">
<path fill-rule="evenodd" clip-rule="evenodd" d="M26.7286 1C26.4004 1 26.0956 1.07034 25.8142 1.16412C26.4121 1.56271 26.7403 2.09025 26.9045 2.68813C26.9162 2.77019 26.9396 2.82881 26.9514 2.91087C26.9631 2.98121 26.9748 3.05154 26.9748 3.12189C27.0217 4.15352 26.7052 4.28247 26.4824 4.89207C26.1424 5.67752 26.2362 6.52159 26.6465 7.20153C26.6817 7.28359 26.7286 7.37737 26.7872 7.45943C26.3417 4.49349 28.8153 4.04801 29.2725 3.12189C29.3077 2.31299 28.6395 1.77373 28.1119 1.39859C27.6078 1.09379 27.1506 1 26.7286 1ZM30.4566 1.66822C30.4096 1.93785 30.4448 1.86751 30.4331 2.00819C30.4214 2.10197 30.4214 2.21921 30.4097 2.31299C30.3863 2.40677 30.3628 2.50056 30.3276 2.59435C30.3042 2.68813 30.269 2.78191 30.2339 2.8757C30.1869 2.96949 30.1518 3.05154 30.1049 3.14533C30.0697 3.19224 30.0463 3.23911 30.0111 3.28601C29.9877 3.32118 29.9642 3.35635 29.9408 3.39152C29.8822 3.47358 29.8235 3.55564 29.7649 3.62598C29.6946 3.69632 29.636 3.77838 29.5539 3.837V3.84873C29.4836 3.90735 29.4132 3.97769 29.3312 4.0363C29.085 4.22387 28.8036 4.36455 28.5457 4.5404C28.4637 4.59901 28.3816 4.64591 28.3113 4.71624C28.2292 4.77486 28.1589 4.83347 28.0885 4.90381C28.0065 4.97415 27.9478 5.04449 27.8775 5.12655C27.8189 5.19689 27.7486 5.27895 27.7017 5.36102C27.643 5.44307 27.5844 5.52514 27.5375 5.6072C27.4906 5.70098 27.4555 5.78305 27.4086 5.87683C27.3734 5.97061 27.3382 6.05268 27.3148 6.14646C27.2796 6.25197 27.2562 6.34575 27.2327 6.43954C27.221 6.48645 27.221 6.54505 27.2093 6.59194C27.1975 6.63885 27.1975 6.68572 27.1859 6.73262C27.1859 6.8264 27.1741 6.93191 27.1741 7.02569C27.1741 7.09603 27.1741 7.16637 27.1859 7.23671C27.1859 7.3305 27.1976 7.42428 27.221 7.52979C27.2328 7.62357 27.2562 7.71736 27.2797 7.81115C27.3148 7.90493 27.3383 7.99871 27.3734 8.0925C27.3969 8.15112 27.4321 8.20973 27.4555 8.25662L24.7592 7.21326C24.302 7.08431 23.8565 6.96708 23.3993 6.86157C23.1531 6.80296 22.9069 6.74434 22.6608 6.68572C21.9574 6.54505 21.2423 6.43954 20.5272 6.3692C20.5037 6.3692 20.492 6.35746 20.4685 6.35746C19.7651 6.28713 19.0735 6.25196 18.3701 6.25196C17.8543 6.25196 17.3385 6.27538 16.8344 6.31057C16.1193 6.35748 15.4041 6.45125 14.689 6.56848C14.5132 6.59191 14.3373 6.6271 14.1615 6.66227C13.7981 6.7326 13.4464 6.81467 13.1064 6.89673C12.9306 6.94364 12.7547 6.99051 12.5789 7.0374C12.403 7.10774 12.2389 7.18981 12.0748 7.26014C11.9458 7.31876 11.8169 7.37737 11.6879 7.43599C11.6645 7.44773 11.641 7.44773 11.6293 7.45942C11.5121 7.51803 11.4066 7.56492 11.3011 7.62354C11.2659 7.63528 11.2424 7.64697 11.219 7.65871C11.09 7.71733 10.9611 7.78767 10.8556 7.84628C10.7735 7.88145 10.6915 7.92834 10.6211 7.96352C10.586 7.98694 10.5391 8.01043 10.5156 8.02213C10.4101 8.08074 10.3046 8.13936 10.2108 8.19798C10.1053 8.25659 10.0115 8.3152 9.92945 8.37382C9.8474 8.43244 9.76533 8.47933 9.69499 8.53794C9.68325 8.54968 9.67156 8.54968 9.65982 8.56137C9.58948 8.60828 9.50743 8.66688 9.43709 8.7255C9.43709 8.7255 9.42534 8.73724 9.41366 8.74893C9.35504 8.79584 9.29642 8.84271 9.23781 8.8896C9.21438 8.90134 9.1909 8.92477 9.16747 8.93651C9.10886 8.98342 9.05024 9.04202 8.99163 9.08891C8.97989 9.11234 8.95646 9.12408 8.94472 9.13583C8.87438 9.20616 8.80404 9.26478 8.7337 9.33512C8.72196 9.33512 8.72196 9.34686 8.71027 9.35854C8.63993 9.41716 8.56959 9.4875 8.49925 9.55784C8.48751 9.56958 8.48751 9.58127 8.47583 9.58127C8.41721 9.63988 8.3586 9.6985 8.29998 9.76883C8.27655 9.79226 8.24136 9.81574 8.21792 9.83917C8.15931 9.90951 8.08897 9.97985 8.01863 10.0502C8.00688 10.0736 7.98346 10.0854 7.97172 10.1088C7.87793 10.2026 7.79587 10.2964 7.70208 10.3902C7.69034 10.4019 7.67866 10.4136 7.66692 10.4253C7.47934 10.6246 7.28005 10.8239 7.06904 10.9998C6.85802 11.1873 6.63528 11.3632 6.41254 11.5156C6.17808 11.6797 5.95534 11.8204 5.70915 11.9611C5.47469 12.09 5.22851 12.2072 4.9706 12.3128C4.72441 12.4183 4.46651 12.512 4.2086 12.5941C3.71622 12.6996 3.21213 12.8989 2.77838 12.9341C2.68459 12.9341 2.57908 12.9575 2.4853 12.9692C2.37979 12.9927 2.28601 13.0162 2.19222 13.0396C2.09844 13.0747 2.00465 13.1099 1.91087 13.1451C1.81708 13.1803 1.7233 13.2272 1.62951 13.274C1.54745 13.3327 1.45367 13.3796 1.3716 13.4382C1.28954 13.4968 1.20748 13.5671 1.13714 13.6375C1.05508 13.6961 0.973018 13.7781 0.902678 13.8485C0.832339 13.9305 0.762 14.0009 0.703386 14.0829C0.644772 14.1767 0.574432 14.2588 0.527538 14.3526C0.468924 14.4346 0.410309 14.5284 0.363415 14.6222C0.316504 14.7277 0.269631 14.8215 0.234461 14.927C0.199292 15.0208 0.164122 15.1263 0.128953 15.2318C0.105525 15.3256 0.0820416 15.4194 0.0703386 15.5132C0.0703386 15.5249 0.0585974 15.5366 0.0585974 15.5483C0.0351694 15.6538 0.0351693 15.7945 0.0234277 15.8649C0.0116865 15.9469 0 16.0173 0 16.0993C0 16.1462 3.64949e-08 16.2048 0.0117412 16.2517C0.0234823 16.3338 0.0351688 16.4041 0.0586523 16.4745C0.0820802 16.5448 0.105563 16.6151 0.140711 16.6855V16.6972C0.175881 16.7676 0.222775 16.8379 0.269664 16.9082C0.316575 16.9786 0.363454 17.0489 0.422068 17.1193C0.480682 17.1779 0.551021 17.2482 0.62136 17.3068C0.691699 17.3772 0.762039 17.4358 0.844097 17.4944C1.12545 17.7406 1.19579 17.8226 1.55921 18.0102C1.61782 18.0454 1.67644 18.0688 1.74678 18.104C1.75853 18.104 1.77021 18.1157 1.78195 18.1157C1.78195 18.1392 1.78195 18.1509 1.79369 18.1743C1.80544 18.2681 1.82886 18.3619 1.85231 18.4557C1.87574 18.5612 1.91093 18.655 1.9461 18.7371C1.98127 18.8074 2.00471 18.8777 2.03988 18.9481C2.05162 18.9715 2.06331 18.995 2.07505 19.0067C2.12196 19.1005 2.16884 19.1825 2.21572 19.2646C2.27434 19.3467 2.33296 19.4287 2.39157 19.5108C2.45019 19.5811 2.52053 19.6632 2.59086 19.7335C2.6612 19.8039 2.73154 19.8625 2.81361 19.9328C2.81361 19.9328 2.82535 19.9446 2.83704 19.9446C2.90737 20.0032 2.97771 20.0618 3.04805 20.1087C3.13011 20.1673 3.21218 20.2142 3.30596 20.2611C3.38802 20.308 3.48181 20.3549 3.57559 20.39C3.64593 20.4252 3.72799 20.4487 3.81005 20.4721C3.8218 20.4839 3.83348 20.4839 3.85696 20.4955C3.90388 20.5073 3.96247 20.519 4.00936 20.5307C3.97419 21.1638 3.96245 21.7616 4.05627 21.9726C4.16178 22.2071 4.6776 21.492 5.19341 20.6714C5.12308 21.4803 5.07618 22.4298 5.19341 22.7112C5.32237 23.0043 6.02575 22.0899 6.63536 21.0817C14.947 19.1591 22.5319 24.9034 23.3291 33.0158C23.1767 31.7497 21.6175 31.0463 20.9024 31.2222C20.5507 32.0897 19.9528 33.2034 18.9915 33.895C19.0736 33.1213 19.0384 32.3242 18.8743 31.5504C18.6164 32.629 18.1123 33.6371 17.4206 34.5047C16.3069 34.5867 15.1932 34.0474 14.6071 33.2386C14.5602 33.2034 14.5485 33.133 14.5133 33.0862C14.4781 33.0041 14.4429 32.922 14.4195 32.84C14.3843 32.7579 14.3609 32.6758 14.3492 32.5938C14.3374 32.5117 14.3374 32.4297 14.3374 32.3359C14.3374 32.2773 14.3374 32.2186 14.3374 32.16C14.3492 32.078 14.3726 31.9959 14.396 31.9138C14.4195 31.8318 14.4429 31.7497 14.4781 31.6677C14.525 31.5856 14.5602 31.5035 14.6188 31.4215C14.8181 30.8588 14.8181 30.4016 14.4547 30.1319C14.3843 30.085 14.314 30.0499 14.2319 30.0147C14.185 30.003 14.1264 29.9795 14.0795 29.9678C14.0443 29.9561 14.0209 29.9444 13.9857 29.9326C13.9037 29.9092 13.8216 29.8857 13.7395 29.874C13.6575 29.8506 13.5754 29.8388 13.4934 29.8388C13.4113 29.8271 13.3175 29.8154 13.2354 29.8154C13.1768 29.8154 13.1182 29.8271 13.0596 29.8271C12.9658 29.8271 12.8838 29.8389 12.8017 29.8623C12.7196 29.8741 12.6376 29.8857 12.5555 29.9092C12.4734 29.9326 12.3914 29.9561 12.3093 29.9913C12.2273 30.0265 12.1569 30.0616 12.0749 30.0968C12.0045 30.132 11.9342 30.1789 11.8521 30.214C9.12063 31.9959 10.7501 36.1694 12.6141 37.3768C11.9107 37.5058 11.1956 37.6582 10.9963 37.8106C10.9846 37.8223 10.9729 37.834 10.9729 37.834C11.477 38.1388 12.0045 38.3967 12.5555 38.6195C13.3058 38.8657 14.103 39.0884 14.4547 39.1822V39.1939C15.4277 39.3932 16.4124 39.4636 17.4089 39.4049C22.6022 39.0415 26.8577 35.0908 27.6314 29.8858C27.6549 29.9913 27.6784 30.0851 27.7018 30.1906C27.737 30.4016 27.7838 30.6243 27.8073 30.8471V30.8588C27.8307 30.9643 27.8425 31.0698 27.8542 31.1636V31.2105C27.866 31.316 27.8776 31.4216 27.8776 31.5153C27.8894 31.6443 27.9011 31.7732 27.9011 31.9022V32.0898C27.9011 32.1484 27.9128 32.2187 27.9128 32.2773C27.9128 32.3477 27.9011 32.418 27.9011 32.4884V32.6525C27.9011 32.7345 27.8893 32.8049 27.8893 32.8869C27.8893 32.9338 27.8893 32.9807 27.8776 33.0393C27.8776 33.1214 27.8658 33.2035 27.8658 33.2972C27.8541 33.3324 27.8541 33.3676 27.8541 33.4028C27.8423 33.4965 27.8306 33.5786 27.8189 33.6724C27.8189 33.7076 27.8189 33.7427 27.8072 33.7779C27.7954 33.8951 27.772 34.0006 27.7603 34.1179V34.1296V34.1414C27.7368 34.2469 27.7133 34.3641 27.6899 34.4696V34.5048C27.6665 34.6103 27.643 34.7158 27.6196 34.8213C27.6196 34.8331 27.6078 34.8565 27.6078 34.8682C27.5844 34.9737 27.5609 35.0792 27.5258 35.1847V35.2199C27.4906 35.3371 27.4554 35.4426 27.432 35.5481C27.4203 35.5599 27.4203 35.5716 27.4203 35.5716C27.3851 35.6888 27.3499 35.806 27.3148 35.9233C27.2678 36.0405 27.2327 36.146 27.1858 36.2632C27.1389 36.3805 27.1037 36.4977 27.0568 36.6032C27.0099 36.7204 26.9631 36.826 26.9162 36.9432H26.9044C26.8575 37.0487 26.8106 37.1659 26.752 37.2714C26.7403 37.3066 26.7286 37.33 26.7168 37.3535C26.7051 37.3652 26.7051 37.3769 26.6934 37.3887C25.9314 38.9244 24.806 40.2725 23.3992 41.3276C23.3054 41.3862 23.2116 41.4566 23.1179 41.5269C23.0944 41.5503 23.0592 41.5621 23.0358 41.5855C22.9537 41.6441 22.8717 41.7028 22.7779 41.7614L22.8131 41.8317H22.8248C22.9889 41.8083 23.153 41.7848 23.3172 41.7614H23.3289C23.6337 41.7145 23.9385 41.6559 24.2433 41.5973C24.3254 41.5855 24.4192 41.5621 24.5012 41.5386C24.5598 41.5269 24.6067 41.5152 24.6653 41.5035C24.7474 41.4917 24.8295 41.4683 24.9115 41.4566C24.9819 41.4331 25.0522 41.4214 25.1225 41.3979C26.2949 41.1166 27.432 40.7297 28.5222 40.2725C26.6583 42.8164 24.1612 44.868 21.2422 46.2161C22.5904 46.1224 23.9385 45.8996 25.2398 45.5245C29.9642 44.1294 33.9383 40.9525 36.3181 36.6735C35.8375 39.3816 34.7589 41.9607 33.1646 44.2115C34.3017 43.4612 35.3451 42.5937 36.2947 41.609C38.9206 38.8657 40.6439 35.384 41.2301 31.6443C41.6287 33.4966 41.7459 35.4074 41.5701 37.2949C50.0342 25.4897 42.2735 13.2508 39.0262 10.0269C39.0144 10.0035 39.0027 9.99173 39.0027 9.96828C38.991 9.98002 38.991 9.98002 38.991 9.99171C38.991 9.97997 38.991 9.97997 38.9792 9.96828C38.9792 10.109 38.9675 10.2496 38.9558 10.3903C38.9206 10.6599 38.8855 10.9179 38.8386 11.1758C38.78 11.4337 38.7096 11.6916 38.6393 11.9495C38.5572 12.1957 38.4634 12.4536 38.3579 12.6998C38.2524 12.9342 38.1352 13.1804 38.0062 13.4149C37.8773 13.6376 37.7366 13.8721 37.5842 14.0831C37.4318 14.3058 37.2677 14.5168 37.1036 14.7161C36.9277 14.9272 36.7401 15.1147 36.5526 15.3023C36.4353 15.4078 36.3298 15.5016 36.2126 15.5954C36.1188 15.6774 36.0367 15.7478 35.943 15.8298C35.7319 15.994 35.5209 16.1464 35.2865 16.287C35.0637 16.4277 34.8293 16.5684 34.5948 16.6856C34.3486 16.8029 34.1024 16.9084 33.8563 17.0139C33.6101 17.1077 33.3522 17.1897 33.0942 17.2601C32.8363 17.3304 32.5667 17.389 32.3088 17.4359C32.0392 17.4828 31.7695 17.5062 31.5116 17.5297C31.3241 17.5414 31.1365 17.5531 30.9489 17.5531C30.6793 17.5531 30.4097 17.5297 30.1518 17.5062C29.8821 17.4828 29.6125 17.4476 29.3546 17.389C29.0849 17.3421 28.827 17.2717 28.5691 17.1897H28.5574C28.8153 17.1663 29.0732 17.1428 29.3311 17.0959C29.6007 17.049 29.8587 16.9904 30.1166 16.92C30.3745 16.8497 30.6324 16.7676 30.8786 16.6739C31.1365 16.5801 31.3827 16.4628 31.6171 16.3456C31.8633 16.2284 32.086 16.0994 32.3205 15.9588C32.5432 15.8064 32.766 15.654 32.977 15.4898C33.188 15.3257 33.3873 15.1499 33.5749 14.9623C33.7742 14.7864 33.95 14.5871 34.1259 14.3879C34.3017 14.1768 34.4658 13.9658 34.6182 13.7548C34.6417 13.7196 34.6652 13.6727 34.6886 13.6376C34.8058 13.45 34.923 13.2624 35.0285 13.0749C35.1575 12.8404 35.2747 12.6059 35.3802 12.3598C35.4857 12.1136 35.5795 11.8674 35.6616 11.6095C35.7437 11.3633 35.8023 11.1054 35.8609 10.8475C35.9078 10.5778 35.9547 10.3199 35.9781 10.062C36.0015 9.7924 36.025 9.52276 36.025 9.26486C36.025 9.07729 36.0133 8.88972 36.0016 8.70215C35.9782 8.43252 35.943 8.17461 35.9078 7.9167C35.8609 7.64707 35.8023 7.38916 35.732 7.13125C35.6499 6.88507 35.5678 6.62716 35.4741 6.38098C35.3803 6.13479 35.263 5.8886 35.1458 5.65414C35.0169 5.41968 34.8879 5.18521 34.7472 4.96248C34.5948 4.73974 34.4424 4.52872 34.2783 4.3177C34.1025 4.11841 33.9266 3.91912 33.739 3.71983C33.6453 3.62604 33.5397 3.52053 33.4342 3.42675C32.9067 3.01644 32.3557 2.62958 31.8047 2.27788C31.7227 2.23097 31.6523 2.19582 31.5703 2.16065C31.1834 1.91447 30.82 1.78545 30.4566 1.66822Z" fill="#E0234E"/>
</svg>
