<svg width="48" height="48" viewBox="0 0 48 48" fill="none" xmlns="http://www.w3.org/2000/svg">
<path d="M38.2935 44L31.1112 36.8583L31.0014 36.874V36.7957L15.7272 21.7135L19.4909 18.08L17.2797 5.39413L6.78846 18.3933C5.00072 20.1943 4.6714 23.1231 5.95732 25.2844L12.5124 36.1536C13.516 37.8293 15.3351 38.8317 17.2954 38.816L20.5416 38.7846L38.2935 44Z" fill="#18B6F6"/>
<path d="M42.2134 18.1426L40.7707 15.4801L40.0179 14.1176L39.72 13.5851L39.6886 13.6164L35.7367 6.77227C34.7488 5.0495 32.8983 3.98451 30.891 4.00017L27.4253 4.09413L17.0908 4.12546C15.1306 4.14112 13.3429 5.17479 12.3549 6.85058L6.06644 19.3172L17.3104 5.36272L32.0515 21.5568L29.4326 24.2036L31.0008 36.8739L31.0165 36.8425V36.8739H30.9851L31.0165 36.9052L32.2397 38.0955L38.1831 43.9059C38.4341 44.1409 38.8418 43.859 38.6693 43.5614L34.9997 36.3414L41.398 24.5169L41.6018 24.2819C41.6802 24.1879 41.7586 24.094 41.8214 24C43.076 22.2929 43.2484 20.0063 42.2134 18.1426Z" fill="#AC7EF4"/>
<path d="M32.0984 21.4943L17.3103 5.37845L19.4117 18.0017L15.648 21.6509L30.9693 36.8583L29.5893 24.235L32.0984 21.4943Z" fill="white"/>
</svg>
