<svg width="48" height="48" viewBox="0 0 48 48" fill="none" xmlns="http://www.w3.org/2000/svg">
<path fill-rule="evenodd" clip-rule="evenodd" d="M21.7815 2.62427C20.1346 3.45661 16.6637 5.07614 14.7838 6.36866C12.9039 7.66122 13.1369 8.86571 12.3141 9.6981C11.4912 10.5304 9.02031 12.6101 7.37464 13.8574C5.72776 15.106 6.13918 18.4354 5.72776 19.684C5.31635 20.9313 4.4935 23.8433 4.08209 25.0919C3.66947 26.3404 4.90492 28.0051 5.72776 29.6698C6.55179 31.3333 8.6089 35.9101 9.43292 37.5736C10.2558 39.2383 12.7266 38.406 14.7838 40.0707C16.8409 41.7354 19.7232 43.8162 21.7815 45.0636C23.8386 46.3121 24.6626 46.3121 26.7209 45.0636C28.7781 43.8151 31.6604 41.7342 33.7186 40.0695C35.7757 38.406 38.2466 39.2383 39.0695 37.5736C39.8923 35.9089 41.9506 31.3333 42.7747 29.6686C43.5974 28.0039 44.8317 26.3392 44.4203 25.0919C44.0088 23.8433 43.1861 20.9301 42.7747 19.6827C42.3632 18.4342 42.7747 15.106 41.1277 13.8574C39.4809 12.6089 37.57 11.0203 36.1883 9.69692C34.8066 8.37345 35.3655 7.61604 33.7186 6.36748C32.0718 5.12013 28.3677 3.45661 26.7209 2.62427C25.074 1.79191 23.4272 1.79191 21.7815 2.62427Z" fill="white"/>
<path fill-rule="evenodd" clip-rule="evenodd" d="M15.968 9.84318L23.672 15.1287C23.8452 15.245 24.0483 15.3091 24.2571 15.3129C24.4661 15.311 24.6697 15.2468 24.842 15.1287L32.552 9.82534C32.6999 9.71876 32.8179 9.57568 32.8944 9.41014C32.9708 9.24461 33.0033 9.06214 32.9885 8.88039C32.9739 8.69865 32.9125 8.52378 32.8104 8.37264C32.7083 8.2216 32.5689 8.09944 32.4057 8.01794L24.7018 4.18437C24.5577 4.11399 24.3995 4.07739 24.2392 4.07739C24.0788 4.07739 23.9206 4.11399 23.7767 4.18437L16.0952 8.01794C15.929 8.09962 15.787 8.22341 15.6837 8.37708C15.5803 8.53075 15.5189 8.70888 15.506 8.89361C15.493 9.07835 15.5287 9.26335 15.6096 9.42997C15.6905 9.5966 15.8136 9.73904 15.9667 9.84318H15.968ZM26.8742 16.7874C26.874 16.9596 26.9155 17.1293 26.995 17.2821C27.0745 17.4349 27.1897 17.5662 27.3308 17.665L33.5069 21.9075C33.6985 22.0405 33.9295 22.1047 34.1622 22.0896C34.3951 22.0745 34.6158 21.981 34.7887 21.8243L39.9695 17.1667C40.0839 17.0638 40.1745 16.9371 40.2351 16.7955C40.2957 16.654 40.3247 16.5009 40.3201 16.3471C40.3156 16.1932 40.2777 16.0422 40.2089 15.9045C40.1401 15.7667 40.0422 15.6456 39.9219 15.5496L34.9753 11.5733C34.8009 11.4337 34.5863 11.3537 34.3631 11.3452C34.1399 11.3366 33.9197 11.3999 33.7352 11.5257L27.3308 15.9289C27.1922 16.0259 27.0784 16.1544 26.9991 16.3038C26.9197 16.4532 26.8769 16.6182 26.8742 16.7874ZM11.5125 22.5591C11.7622 22.7851 11.8906 23.1181 11.8573 23.4546C11.8418 23.6209 11.7864 23.7811 11.6957 23.9215C11.605 24.0618 11.4818 24.1782 11.3365 24.2607L7.6492 26.4831C7.27464 26.7067 6.80258 26.6746 6.4625 26.4011C6.12243 26.1276 5.98331 25.6697 6.11529 25.25L7.47917 20.9361C7.53101 20.7687 7.62404 20.6169 7.74972 20.4947C7.8754 20.3726 8.02973 20.2839 8.19855 20.2369C8.36676 20.1876 8.54489 20.183 8.71545 20.2234C8.88599 20.2638 9.04307 20.348 9.17122 20.4676L11.5125 22.5591ZM31.5164 23.011L24.848 18.4235C24.6753 18.3065 24.4716 18.244 24.2629 18.244C24.0544 18.244 23.8506 18.3065 23.6779 18.4235L17.0096 23.0098C16.8783 23.1017 16.7691 23.2217 16.6901 23.3613C16.6111 23.5007 16.5642 23.6561 16.553 23.8161C16.5442 23.9773 16.5711 24.1383 16.6317 24.288C16.6924 24.4376 16.7853 24.572 16.9038 24.6817L23.5662 30.6722C23.7574 30.8446 24.0056 30.94 24.2629 30.94C24.5204 30.94 24.7686 30.8446 24.9598 30.6722L31.621 24.6805C31.7397 24.5716 31.8323 24.4373 31.892 24.2876C31.9518 24.1379 31.977 23.9768 31.9658 23.8161C31.9572 23.6563 31.9122 23.5007 31.8343 23.3609C31.7564 23.2212 31.6477 23.1011 31.5164 23.0098V23.011ZM13.7314 21.8243L8.55528 17.1667C8.4399 17.0611 8.3487 16.9319 8.28796 16.7878C8.2272 16.6438 8.19833 16.4883 8.20331 16.332C8.20577 16.1779 8.24222 16.0263 8.31005 15.888C8.37788 15.7496 8.47542 15.628 8.5957 15.5317L13.5423 11.5317C13.7181 11.3921 13.9338 11.3121 14.1582 11.3036C14.3825 11.295 14.6037 11.3583 14.7896 11.4841L21.188 15.8873C21.4853 16.0835 21.6636 16.4175 21.6636 16.7767C21.6636 17.1357 21.4853 17.4687 21.188 17.665L15.0179 21.9075C14.6195 22.1811 14.0916 22.1454 13.7314 21.8243ZM40.3036 28.5153L35.0348 25.3452C34.8445 25.2297 34.6219 25.1789 34.4003 25.2004C34.1787 25.2219 33.97 25.3143 33.8053 25.4641L27.3653 31.2406C27.2317 31.3612 27.1309 31.5136 27.0721 31.6837C27.0132 31.8536 26.9983 32.0358 27.0286 32.2131C27.0589 32.3905 27.1337 32.5572 27.2458 32.6981C27.3578 32.8388 27.5037 32.949 27.6697 33.0183L36.6032 36.6568C36.8554 36.7571 37.1366 36.7556 37.3876 36.6527C37.6387 36.5498 37.84 36.3535 37.9492 36.1051L40.7198 29.872C40.8286 29.6341 40.8464 29.3646 40.7697 29.1145C40.693 28.8644 40.5272 28.6511 40.3036 28.5153ZM41.0349 20.9361L42.3988 25.25H42.3869C42.4366 25.4091 42.4486 25.5776 42.4217 25.7422C42.3949 25.9067 42.33 26.0627 42.2323 26.1978C42.0796 26.4091 41.8534 26.5557 41.5981 26.6084C41.3428 26.6613 41.0769 26.6166 40.853 26.4831L37.1597 24.2595C37.0173 24.1756 36.8972 24.0586 36.8095 23.9185C36.7217 23.7784 36.6689 23.6193 36.6555 23.4546C36.6382 23.2887 36.6604 23.121 36.7204 22.9654C36.7803 22.8098 36.8762 22.6705 37.0004 22.5591L39.3429 20.4616C39.608 20.2238 39.973 20.137 40.3143 20.2309C40.4833 20.2798 40.6375 20.3699 40.7633 20.4929C40.889 20.6159 40.9824 20.7682 41.0349 20.9361ZM21.4925 32.212C21.5236 32.0352 21.5094 31.8534 21.4512 31.6834C21.3929 31.5135 21.2926 31.3612 21.1595 31.2406L14.7206 25.4629C14.556 25.3131 14.3472 25.2206 14.1256 25.1992C13.9041 25.1778 13.6815 25.2286 13.4911 25.344L8.22353 28.5153C8.00232 28.6518 7.83783 28.8637 7.76029 29.1119C7.68274 29.36 7.69734 29.6278 7.8014 29.866L10.5755 36.1003C10.684 36.3496 10.8856 36.5467 11.1372 36.6495C11.3889 36.7523 11.6707 36.7529 11.9228 36.6509L20.8503 33.0123C21.0165 32.9446 21.1628 32.8357 21.2752 32.696C21.3878 32.5562 21.4629 32.3901 21.4936 32.2132L21.4925 32.212ZM24.6541 33.9898L31.8196 36.9054C31.9923 36.9805 32.1419 37.1002 32.2529 37.2524C32.3639 37.4045 32.4323 37.5836 32.4509 37.771C32.4735 37.9607 32.444 38.1531 32.3657 38.3273C32.2874 38.5015 32.1631 38.6512 32.0062 38.7603L24.8361 43.7675C24.6646 43.8891 24.4601 43.9554 24.2499 43.9578C24.0403 43.9541 23.8365 43.8879 23.6649 43.7675L16.4995 38.7615C16.3419 38.6529 16.2166 38.5037 16.137 38.3296C16.0574 38.1555 16.0264 37.9632 16.0474 37.7729C16.0684 37.5827 16.1405 37.4016 16.2562 37.2491C16.3717 37.0965 16.5266 36.9782 16.7041 36.9066L23.8694 33.9909C24.1212 33.8899 24.4023 33.8887 24.6541 33.9898Z" fill="#BF4722"/>
</svg>
