<svg width="48" height="48" viewBox="0 0 48 48" fill="none" xmlns="http://www.w3.org/2000/svg">
<path d="M45.9865 12.4752C45.9865 12.4752 31.6577 1.93135 20.5731 4.36455L19.762 4.6349C18.1399 5.17561 16.7881 5.98668 15.9771 7.0681L15.4364 7.87917L11.381 14.9084L18.4103 16.2602C21.3842 18.1527 25.1692 18.9637 28.6838 18.1527L41.1201 20.5859L45.9865 12.4752Z" fill="#76B3E1"/>
<path opacity="0.3" d="M45.9865 12.4752C45.9865 12.4752 31.6577 1.93135 20.5731 4.36455L19.762 4.6349C18.1399 5.17561 16.7881 5.98668 15.9771 7.0681L15.4364 7.87917L11.381 14.9084L18.4103 16.2602C21.3842 18.1527 25.1692 18.9637 28.6838 18.1527L41.1201 20.5859L45.9865 12.4752Z" fill="url(#paint0_linear_148_112)"/>
<path d="M15.9771 12.4752L14.8956 12.7456C10.2996 14.0973 8.94782 18.423 11.381 22.208C14.0846 25.7226 19.762 27.6151 24.3581 26.2633L41.1201 20.5859C41.1201 20.5859 26.7913 10.042 15.9771 12.4752Z" fill="#518AC8"/>
<path opacity="0.3" d="M15.9771 12.4752L14.8956 12.7456C10.2996 14.0973 8.94782 18.423 11.381 22.208C14.0846 25.7226 19.762 27.6151 24.3581 26.2633L41.1201 20.5859C41.1201 20.5859 26.7913 10.042 15.9771 12.4752Z" fill="url(#paint1_linear_148_112)"/>
<path d="M38.1462 24.6412C36.6326 22.7502 34.589 21.3541 32.277 20.6316C29.9651 19.9091 27.4902 19.8932 25.1692 20.5859L8.40711 25.993L3 35.4554L33.2798 40.5922L38.6869 30.8594C39.7684 28.9669 39.498 26.8041 38.1462 24.6412Z" fill="url(#paint2_linear_148_112)"/>
<path d="M32.7391 34.1037C31.2255 32.2127 29.1818 30.8166 26.8699 30.0941C24.558 29.3716 22.0831 29.3557 19.762 30.0483L3 35.4555C3 35.4555 17.3288 46.2697 28.4134 43.5661L29.2245 43.2958C33.8205 41.944 35.4427 37.6183 32.7391 34.1037Z" fill="url(#paint3_linear_148_112)"/>
<defs>
<linearGradient id="paint0_linear_148_112" x1="9.35335" y1="3.82383" x2="43.0126" y2="20.1803" gradientUnits="userSpaceOnUse">
<stop offset="0.1" stop-color="#76B3E1"/>
<stop offset="0.3" stop-color="#DCF2FD"/>
<stop offset="1" stop-color="#76B3E1"/>
</linearGradient>
<linearGradient id="paint1_linear_148_112" x1="27.8186" y1="11.8263" x2="21.9249" y2="31.4542" gradientUnits="userSpaceOnUse">
<stop stop-color="#76B3E1"/>
<stop offset="0.5" stop-color="#4377BB"/>
<stop offset="1" stop-color="#1F3B77"/>
</linearGradient>
<linearGradient id="paint2_linear_148_112" x1="6.89312" y1="20.3696" x2="40.9309" y2="43.512" gradientUnits="userSpaceOnUse">
<stop stop-color="#315AA9"/>
<stop offset="0.5" stop-color="#518AC8"/>
<stop offset="1" stop-color="#315AA9"/>
</linearGradient>
<linearGradient id="paint3_linear_148_112" x1="22.2493" y1="23.1543" x2="8.51526" y2="73.5215" gradientUnits="userSpaceOnUse">
<stop stop-color="#4377BB"/>
<stop offset="0.5" stop-color="#1A336B"/>
<stop offset="1" stop-color="#1A336B"/>
</linearGradient>
</defs>
</svg>
