<svg width="48" height="48" viewBox="0 0 48 48" fill="none" xmlns="http://www.w3.org/2000/svg">
<path d="M39.946 7.82068C35.8825 1.96779 27.7928 0.252927 21.9772 3.9436L11.7253 10.5048C8.92938 12.2569 6.99084 15.1275 6.43165 18.3708C5.94701 21.0922 6.35709 23.8882 7.66187 26.3113C6.76716 27.6534 6.17069 29.1446 5.90973 30.7103C5.31326 34.0282 6.09613 37.4579 8.03467 40.1793C12.1354 46.0322 20.1878 47.7471 26.0034 44.0564L36.2553 37.5325C39.0512 35.7803 40.9898 32.9098 41.549 29.6665C42.0336 26.9451 41.6235 24.1491 40.3188 21.7259C41.2135 20.3839 41.8099 18.8927 42.0709 17.327C42.7046 13.9718 41.9218 10.5421 39.946 7.82068Z" fill="#FF3E00"/>
<path d="M20.9707 40.7385C17.6528 41.5959 14.1858 40.2912 12.2473 37.4952C11.0543 35.8549 10.607 33.8045 10.9425 31.7914C11.0171 31.4559 11.0916 31.1577 11.1662 30.8222L11.3526 30.2257L11.8745 30.5985C13.1047 31.4932 14.4468 32.1642 15.9007 32.6116L16.2735 32.7234L16.2362 33.0962C16.1989 33.6181 16.348 34.1773 16.6463 34.6247C17.2427 35.4821 18.2866 35.8922 19.2931 35.6312C19.5168 35.5567 19.7405 35.4821 19.9269 35.3703L30.1415 28.8463C30.6634 28.5108 30.9989 28.0262 31.1107 27.4297C31.2226 26.8332 31.0735 26.1995 30.7379 25.7149C30.1415 24.8574 29.0976 24.4846 28.0911 24.7456C27.8674 24.8201 27.6437 24.8947 27.4573 25.0065L23.543 27.5043C22.9092 27.9143 22.2009 28.2126 21.4553 28.399C18.1375 29.2564 14.6705 27.9516 12.7319 25.1557C11.5763 23.5154 11.0916 21.465 11.4644 19.4519C11.7999 17.5134 12.9929 15.7612 14.6705 14.7174L24.9223 8.19346C25.5561 7.78339 26.2644 7.48515 27.01 7.26148C30.3279 6.40405 33.7949 7.70883 35.7334 10.5048C36.9263 12.1451 37.3737 14.1955 37.0382 16.2086C36.9636 16.5441 36.8891 16.8423 36.7772 17.1778L36.5908 17.7743L36.0689 17.4015C34.8387 16.5068 33.4966 15.8358 32.0427 15.3884L31.6699 15.2766L31.7072 14.9038C31.7445 14.3819 31.5954 13.8227 31.2971 13.3753C30.7007 12.5179 29.6568 12.1451 28.6503 12.4061C28.4266 12.4806 28.2029 12.5552 28.0165 12.667L17.8019 19.1909C17.28 19.5264 16.9445 20.0111 16.8327 20.6076C16.7208 21.204 16.87 21.8378 17.2055 22.3224C17.8019 23.1798 18.8458 23.5526 19.8523 23.2917C20.076 23.2171 20.2997 23.1426 20.4861 23.0307L24.4004 20.533C25.0342 20.1229 25.7425 19.8247 26.4881 19.601C29.806 18.7436 33.273 20.0484 35.2115 22.8443C36.4044 24.4846 36.8518 26.535 36.5163 28.5481C36.1808 30.4866 34.9878 32.2388 33.3102 33.2826L23.0584 39.8065C22.4246 40.2166 21.7163 40.5148 20.9707 40.7385Z" fill="white"/>
</svg>
