<svg width="48" height="48" viewBox="0 0 48 48" fill="none" xmlns="http://www.w3.org/2000/svg">
<path d="M8.03023 10.5651C7.79447 8.86629 8.96327 7.29555 10.6408 7.05679L31.9031 4.03062C33.5807 3.79186 35.1317 4.9755 35.3675 6.67436L39.6364 37.4348C39.8721 39.1336 38.7034 40.7044 37.0258 40.9432L15.7635 43.9694C14.0859 44.2081 12.5349 43.0245 12.2992 41.3256L8.03023 10.5651Z" fill="url(#paint0_linear_320_7)"/>
<path d="M9.54898 10.349C9.43109 9.49958 10.0155 8.7142 10.8543 8.59483L32.1166 5.56865C32.9554 5.44927 33.7309 6.0411 33.8488 6.89052L38.1176 37.651C38.2356 38.5004 37.6511 39.2858 36.8124 39.4052L15.5501 42.4313C14.7112 42.5507 13.9357 41.9589 13.8178 41.1095L9.54898 10.349Z" fill="white"/>
<path d="M31.4881 16.4329L25.3754 32.4646C25.2492 32.7955 24.8136 32.8583 24.5981 32.5765L14.1119 18.8615C13.8772 18.5545 14.1014 18.1115 14.4838 18.127L22.9211 18.4672C22.9748 18.4694 23.0287 18.4617 23.0797 18.4447L30.924 15.8326C31.2859 15.7121 31.6252 16.0731 31.4881 16.4329Z" fill="url(#paint1_linear_320_7)"/>
<path d="M26.3542 14.4797L20.446 16.5356C20.3489 16.5693 20.287 16.6655 20.2955 16.7692L20.8263 23.2192C20.8388 23.3711 20.992 23.469 21.1323 23.4147L22.7688 22.7827C22.922 22.7235 23.0851 22.8448 23.0754 23.0107L22.9252 25.5752C22.9152 25.7478 23.0911 25.8697 23.2458 25.7972L24.2457 25.3294C24.4007 25.257 24.5767 25.3791 24.5662 25.552L24.3212 29.5816C24.3059 29.8337 24.6466 29.9222 24.7511 29.6934L24.8208 29.5406L28.3582 18.8345C28.4173 18.6552 28.2473 18.4841 28.0706 18.545L26.3766 19.1289C26.2174 19.1837 26.0562 19.0488 26.0795 18.8801L26.6519 14.7282C26.6752 14.5593 26.5136 14.4242 26.3542 14.4797Z" fill="url(#paint2_linear_320_7)"/>
<defs>
<linearGradient id="paint0_linear_320_7" x1="9.23469" y1="5.64658" x2="36.375" y2="44.172" gradientUnits="userSpaceOnUse">
<stop stop-color="#49C7FF"/>
<stop offset="1" stop-color="#BD36FF"/>
</linearGradient>
<linearGradient id="paint1_linear_320_7" x1="13.7373" y1="17.6888" x2="26.1038" y2="30.1814" gradientUnits="userSpaceOnUse">
<stop stop-color="#41D1FF"/>
<stop offset="1" stop-color="#BD34FE"/>
</linearGradient>
<linearGradient id="paint2_linear_320_7" x1="22.0115" y1="15.4205" x2="25.7053" y2="28.0057" gradientUnits="userSpaceOnUse">
<stop stop-color="#FFEA83"/>
<stop offset="0.0833333" stop-color="#FFDD35"/>
<stop offset="1" stop-color="#FFA800"/>
</linearGradient>
</defs>
</svg>
