<svg width="48" height="48" viewBox="0 0 48 48" fill="none" xmlns="http://www.w3.org/2000/svg">
<path d="M7.84625 4H40.1538C42.2781 4 44 5.72187 44 7.84625V40.1538C44 42.2781 42.2781 44 40.1538 44H7.84625C5.72187 44 4 42.2781 4 40.1538V7.84625C4 5.72187 5.72187 4 7.84625 4Z" fill="#E05C43"/>
<path fill-rule="evenodd" clip-rule="evenodd" d="M24.3953 11.54C26.9722 11.489 28.7931 12.1878 30.36 14.4119C33.7769 22.8834 21.5641 27.2556 21.0744 27.4275L21.0591 27.4325C21.0591 27.4325 20.6903 29.7334 24.1928 29.645C28.5031 29.645 33.0347 26.304 34.7584 24.8919C34.9588 24.7272 35.2139 24.6442 35.4728 24.6596C35.7317 24.6749 35.9752 24.7875 36.1547 24.9747L37.4453 26.3153C37.6267 26.5023 37.7303 26.7513 37.7353 27.0118C37.7402 27.2723 37.6461 27.5249 37.4719 27.7187C36.35 28.9678 33.7175 31.5322 29.7544 33.1887C29.7544 33.1887 23.1419 36.2506 18.6856 33.3512C16.0284 31.6231 15.2975 29.554 15.0003 27.4019C15.0019 27.4019 11.7741 27.2381 9.70125 26.4287C7.62781 25.6187 9.71656 23.1753 9.71656 23.1753C9.71656 23.1753 10.3541 22.165 11.5666 23.1753C12.78 24.184 15.0447 23.729 15.0447 23.729C15.2466 22.1356 15.5822 20.0328 16.5709 17.8134C18.6434 13.1619 21.8175 11.59 24.3953 11.54ZM25.9119 16.2009C24.5466 14.8853 20.6044 17.514 20.4522 23.529C20.4522 23.529 21.6159 23.8834 24.1928 22.1134C26.7709 20.3444 27.2772 17.514 25.9119 16.2009Z" fill="white"/>
</svg>
