<svg width="48" height="48" viewBox="0 0 48 48" fill="none" xmlns="http://www.w3.org/2000/svg">
<path d="M45.7661 24C45.7661 11.8497 35.9687 2 23.883 2C11.7974 2 2 11.8497 2 24C2 36.1503 11.7974 46 23.883 46C35.9687 46 45.7661 36.1503 45.7661 24Z" fill="#E04E39"/>
<path fill-rule="evenodd" clip-rule="evenodd" d="M22.6294 31.5694C22.8091 31.3883 23.0228 31.2446 23.2583 31.1465C23.4937 31.0485 23.7463 30.998 24.0013 30.998C24.2564 30.998 24.5089 31.0485 24.7444 31.1465C24.9798 31.2446 25.1936 31.3883 25.3732 31.5694C26.1309 32.3312 26.1309 33.566 25.3732 34.3287L20.7461 38.9804C20.5662 39.1615 20.3523 39.3052 20.1167 39.4032C19.8811 39.5013 19.6284 39.5518 19.3732 39.5518C19.118 39.5518 18.8653 39.5013 18.6297 39.4032C18.394 39.3052 18.1802 39.1615 18.0003 38.9804C17.2437 38.2186 17.2437 36.9838 18.0003 36.2219L22.6294 31.5694ZM27.0551 36.1015C27.2349 35.9202 27.4488 35.7763 27.6845 35.6781C27.9202 35.5799 28.173 35.5294 28.4284 35.5294C28.6837 35.5294 28.9365 35.5799 29.1722 35.6781C29.4079 35.7763 29.6219 35.9202 29.8017 36.1015C30.5594 36.8642 30.5594 38.1 29.8017 38.8628C29.6217 39.0438 29.4077 39.1875 29.172 39.2856C28.9363 39.3837 28.6835 39.4341 28.4283 39.4341C28.173 39.4341 27.9202 39.3837 27.6845 39.2856C27.4488 39.1875 27.2348 39.0438 27.0548 38.8628L27.0112 38.8174C26.2976 38.0519 26.312 36.8493 27.0551 36.1015ZM13.4921 31.6855C13.6721 31.5044 13.886 31.3607 14.1217 31.2626C14.3575 31.1646 14.6102 31.1141 14.8655 31.1141C15.1208 31.1141 15.3736 31.1646 15.6093 31.2626C15.845 31.3607 16.059 31.5044 16.2389 31.6855C16.9964 32.4484 16.9964 33.6843 16.2389 34.447C16.0591 34.6283 15.8452 34.7722 15.6094 34.8704C15.3737 34.9686 15.1209 35.0192 14.8655 35.0192C14.6102 35.0192 14.3573 34.9686 14.1216 34.8704C13.8859 34.7722 13.6719 34.6283 13.4921 34.447L13.4483 34.4017C12.7346 33.6359 12.7493 32.4335 13.4921 31.6855ZM27.02 27.1529C27.1998 26.9721 27.4135 26.8286 27.6489 26.7307C27.8844 26.6328 28.1368 26.5824 28.3918 26.5824C28.6468 26.5824 28.8992 26.6328 29.1346 26.7307C29.3701 26.8286 29.5838 26.9721 29.7636 27.1529L34.2343 31.6478C34.9922 32.4094 34.9922 33.6442 34.2343 34.406C34.0546 34.5871 33.8408 34.7308 33.6053 34.8289C33.3697 34.9269 33.1171 34.9774 32.862 34.9774C32.6069 34.9774 32.3543 34.9269 32.1187 34.8289C31.8832 34.7308 31.6694 34.5871 31.4897 34.406L27.02 29.9125C26.2621 29.1507 26.2621 27.9159 27.02 27.1529ZM27.2038 17.9035C27.3834 17.7224 27.5971 17.5788 27.8326 17.4807C28.068 17.3827 28.3205 17.3322 28.5756 17.3322C28.8306 17.3322 29.0831 17.3827 29.3186 17.4807C29.554 17.5788 29.7677 17.7224 29.9473 17.9035C30.7053 18.6653 30.7053 19.9001 29.9473 20.6619L20.5627 30.0967C20.3831 30.2778 20.1693 30.4215 19.9339 30.5195C19.6984 30.6176 19.4459 30.6681 19.1908 30.6681C18.9358 30.6681 18.6832 30.6176 18.4478 30.5195C18.2123 30.4215 17.9986 30.2778 17.8189 30.0967C17.0612 29.3351 17.0612 28.1001 17.8189 27.3385L27.2038 17.9035ZM35.9203 27.1889C36.1003 27.0078 36.3143 26.8641 36.55 26.766C36.7857 26.668 37.0385 26.6175 37.2938 26.6175C37.549 26.6175 37.8018 26.668 38.0375 26.766C38.2732 26.8641 38.4872 27.0078 38.6672 27.1889C39.4246 27.9516 39.4246 29.1872 38.6672 29.95C38.4873 30.1313 38.2734 30.2752 38.0377 30.3734C37.802 30.4716 37.5491 30.5222 37.2938 30.5222C37.0384 30.5222 36.7856 30.4716 36.5498 30.3734C36.3141 30.2752 36.1002 30.1313 35.9203 29.95L35.8765 29.9046C35.1629 29.139 35.1775 27.9367 35.9203 27.1889ZM13.6104 22.5021C13.79 22.321 14.0038 22.1773 14.2392 22.0792C14.4747 21.9811 14.7273 21.9306 14.9824 21.9306C15.2375 21.9306 15.49 21.9811 15.7255 22.0792C15.961 22.1773 16.1747 22.321 16.3544 22.5021C17.1121 23.2638 17.1121 24.4988 16.3544 25.2615L11.7274 29.9132C11.5477 30.0942 11.3339 30.2379 11.0984 30.336C10.8628 30.434 10.6102 30.4845 10.3551 30.4845C10.1 30.4845 9.84738 30.434 9.61185 30.336C9.37632 30.2379 9.16253 30.0942 8.98278 29.9132C8.22488 29.1513 8.22488 27.9165 8.98278 27.1547L13.6104 22.5021ZM36.0399 18.0868C36.2196 17.9058 36.4333 17.762 36.6688 17.664C36.9042 17.5659 37.1568 17.5154 37.4118 17.5154C37.6669 17.5154 37.9194 17.5659 38.1549 17.664C38.3903 17.762 38.6041 17.9058 38.7837 18.0868C39.5414 18.8487 39.5414 20.0834 38.7837 20.8461L34.2363 25.4177C34.0566 25.5987 33.8429 25.7424 33.6075 25.8405C33.372 25.9386 33.1195 25.989 32.8644 25.989C32.6093 25.989 32.3568 25.9386 32.1213 25.8405C31.8859 25.7424 31.6722 25.5987 31.4925 25.4177C30.7339 24.656 30.7339 23.4202 31.4925 22.6585L36.0399 18.0868ZM13.5328 13.5935C13.7126 13.4126 13.9264 13.2691 14.1618 13.1712C14.3972 13.0733 14.6497 13.0228 14.9047 13.0228C15.1597 13.0228 15.4122 13.0733 15.6476 13.1712C15.8831 13.2691 16.0968 13.4126 16.2766 13.5935L20.7461 18.0868C21.5029 18.8487 21.5029 20.0834 20.7461 20.8453C20.5662 21.0263 20.3523 21.17 20.1167 21.2681C19.8811 21.3661 19.6284 21.4166 19.3732 21.4166C19.118 21.4166 18.8653 21.3661 18.6297 21.2681C18.394 21.17 18.1802 21.0263 18.0003 20.8453L13.5328 16.3528C12.7749 15.591 12.7749 14.3562 13.5328 13.5935ZM9.09975 18.0502C9.27958 17.869 9.49351 17.7251 9.72922 17.6269C9.96492 17.5287 10.2177 17.4781 10.4731 17.4781C10.7284 17.4781 10.9812 17.5287 11.2169 17.6269C11.4526 17.7251 11.6666 17.869 11.8464 18.0502C12.6043 18.8129 12.6043 20.0488 11.8464 20.8115C11.6664 20.9926 11.4524 21.1363 11.2167 21.2344C10.981 21.3324 10.7283 21.3829 10.473 21.3829C10.2177 21.3829 9.9649 21.3324 9.72919 21.2344C9.49349 21.1363 9.2795 20.9926 9.09954 20.8115L9.05595 20.7662C8.34229 20.0006 8.35697 18.7981 9.09975 18.0502ZM27.0209 9.01979C27.2006 8.83873 27.4144 8.69503 27.6499 8.59697C27.8855 8.49891 28.1381 8.44843 28.3932 8.44843C28.6483 8.44843 28.9009 8.49891 29.1365 8.59697C29.372 8.69503 29.5858 8.83873 29.7655 9.01979C30.5223 9.78164 30.5223 11.0164 29.7655 11.7791L25.2181 16.3506C25.0384 16.5317 24.8246 16.6754 24.5891 16.7735C24.3535 16.8715 24.1009 16.922 23.8458 16.922C23.5907 16.922 23.3381 16.8715 23.1025 16.7735C22.867 16.6754 22.6532 16.5317 22.4735 16.3506C21.7149 15.589 21.7149 14.3542 22.4735 13.5913L27.0209 9.01979ZM31.528 13.553C31.708 13.3719 31.9219 13.2283 32.1576 13.1302C32.3933 13.0322 32.646 12.9817 32.9013 12.9817C33.1566 12.9817 33.4093 13.0322 33.645 13.1302C33.8807 13.2283 34.0947 13.3719 34.2746 13.553C35.0325 14.3157 35.0325 15.5524 34.2746 16.3143C34.0948 16.4956 33.8809 16.6395 33.6451 16.7377C33.4094 16.8359 33.1566 16.8865 32.9012 16.8865C32.6458 16.8865 32.393 16.8359 32.1573 16.7377C31.9215 16.6395 31.7076 16.4956 31.5278 16.3143L31.4842 16.2689C30.7705 15.504 30.7852 14.3008 31.528 13.553ZM17.965 9.13742C18.145 8.95635 18.359 8.81265 18.5947 8.71459C18.8304 8.61653 19.0832 8.56605 19.3385 8.56605C19.5937 8.56605 19.8465 8.61653 20.0822 8.71459C20.3179 8.81265 20.5319 8.95635 20.7119 9.13742C21.4693 9.90014 21.4693 11.136 20.7119 11.8987C20.5321 12.08 20.3181 12.2239 20.0824 12.3221C19.8467 12.4204 19.5938 12.4709 19.3385 12.4709C19.0831 12.4709 18.8303 12.4204 18.5945 12.3221C18.3588 12.2239 18.1449 12.08 17.965 11.8987L17.9212 11.8534C17.2076 11.0878 17.2222 9.88524 17.965 9.13742Z" fill="white"/>
</svg>
