<svg width="48" height="48" viewBox="0 0 48 48" fill="none" xmlns="http://www.w3.org/2000/svg">
<path d="M46 34.8653C44.3995 35.2722 43.4095 34.8832 42.5215 33.5496L36.2046 24.8102L35.2915 23.6001L27.9146 33.5787C27.0718 34.7792 26.1877 35.3013 24.6146 34.8766L34.0609 22.1963L25.2664 10.7423C26.7788 10.4482 27.8239 10.5977 28.7518 11.9524L35.3037 20.8007L41.9037 12.0006C42.7492 10.8 43.6583 10.344 45.1763 10.7862L41.7664 15.3072L37.1464 21.3228C36.5963 22.0102 36.6719 22.4807 37.1781 23.1444L46 34.8653ZM2.01122 21.9844L2.78375 18.1838C4.88751 10.6624 13.5088 7.53698 19.4544 12.1844C22.929 14.9178 23.7926 18.7844 23.6207 23.1157H4.03512C3.74108 30.9119 9.35242 35.6171 16.5062 33.2167C19.0155 32.3738 20.4936 30.4087 21.2334 27.9505C21.609 26.7186 22.23 26.5259 23.388 26.878C22.797 29.9526 21.4631 32.521 18.6443 34.1284C14.4328 36.5345 8.42083 35.7563 5.25876 32.4124C3.37478 30.472 2.59664 28.0139 2.2475 25.3847C2.19239 24.9501 2.0825 24.5363 2 24.1199C2.00726 23.4084 2.01122 22.6972 2.01122 21.9857V21.9844ZM4.07076 21.462H21.7697C21.6542 15.8246 18.144 11.8204 13.3464 11.7864C8.08026 11.7452 4.29879 15.654 4.07043 21.462H4.07076Z" fill="black"/>
</svg>
