<svg width="48" height="48" viewBox="0 0 48 48" fill="none" xmlns="http://www.w3.org/2000/svg">
<path d="M45.5456 13.1982L47 9.4498L46.94 9.20991L32.6063 12.9883C34.1356 10.7692 33.6108 9 33.6108 9C33.6108 9 29.0378 11.9237 25.5743 11.8488C22.1108 11.7738 21.0013 10.8442 15.6936 12.5385C10.3859 14.2327 8.88657 19.4205 7.34224 20.545C5.81291 21.6545 1 25.3579 1 25.3579L5.34811 23.9635C5.34811 23.9635 4.11864 25.133 1.58475 28.5365V28.5515C1.98957 29.1213 3.77379 31.4752 5.54303 30.9655C5.73794 30.9055 5.96284 30.8005 6.21773 30.6806C7.01239 31.1304 8.07692 31.5652 9.23142 31.6851C9.23142 31.6851 8.45176 30.7855 7.79205 29.736L8.33181 29.3911L8.24185 29.4511L9.90613 30.0508L9.72621 28.4915H9.7412L11.3605 29.0913L11.1656 27.6669L11.7803 27.367L13.4746 20.9498L20.4915 16.1519L19.9368 17.5613C18.5124 21.0548 15.8435 21.8794 15.8435 21.8794L14.734 22.3142C13.8944 23.2888 13.5495 23.5287 13.2647 26.8272C13.9394 26.6473 14.5691 26.6173 15.1538 26.7673C18.1525 27.5769 19.1871 31.1904 18.3774 32.1949C18.1825 32.4348 17.7027 32.8696 17.088 33.3644H15.8735L15.8585 34.354L15.7386 34.4589H14.4941L14.4791 35.4185L14.1493 35.6584C12.9948 35.6884 11.5104 34.6688 11.5104 34.6688C11.5254 35.5984 12.2901 37.0228 12.2901 37.0228L12.425 36.9478L12.3051 37.0378C12.3051 37.0378 15.4237 39.1069 17.3879 38.3422C19.1271 37.6525 23.6402 34.0991 27.5385 32.4198L39.3233 29.3012L40.8827 25.2829L31.9016 27.6519V24.0235L42.442 21.2497L44.0013 17.2164L31.9016 20.41V16.7966L45.5456 13.1982ZM24.1499 20.8598L26.9537 20.1252L26.9837 20.2601L26.1141 22.5241L23.2203 23.2888L24.1499 20.8598ZM25.1095 25.7027L22.2158 26.4674L23.1604 24.0385L25.9492 23.3038L25.9941 23.4387L25.1095 25.7027ZM28.8879 24.8931L25.9941 25.6578L26.9387 23.2288L29.7275 22.4941L29.7725 22.6291L28.8879 24.8931Z" fill="black"/>
</svg>
