<svg width="48" height="48" viewBox="0 0 48 48" fill="none" xmlns="http://www.w3.org/2000/svg">
<path d="M24 7.27997C33.2341 7.27997 40.72 14.7659 40.72 24C40.72 33.2341 33.2341 40.72 24 40.72C14.7659 40.72 7.27997 33.2341 7.27997 24C7.27997 14.7659 14.7659 7.27997 24 7.27997ZM24 6C14.0748 6 6 14.0748 6 24C6 33.9252 14.0748 42 24 42C33.9252 42 42 33.9252 42 24C42 14.0748 33.9252 6 24 6ZM26.9292 9.58931C25.4625 9.32269 21.9158 14.7093 20.7426 17.9894C20.6534 18.2382 20.4492 19.1494 20.4492 19.3893C20.4492 19.3893 21.3676 21.3658 21.6225 21.8293C21.1958 21.6071 20.3114 19.8949 20.3114 19.8949C19.8847 20.7082 19.4758 24.4427 19.6091 25.1361C19.6091 25.1361 20.56 26.5511 20.9292 26.9049C20.4225 26.736 19.5692 25.5893 19.5692 25.5893C19.4092 26.0827 19.4404 27.1091 19.5159 27.456C20.1559 28.3893 21.0092 28.4961 21.0092 28.4961C21.0092 28.4961 20.0759 37.8028 21.4891 38.496C22.3692 38.3094 22.5825 28.096 22.5825 28.096C22.5825 28.096 23.6491 28.176 23.8892 27.9094C24.4314 27.536 25.6928 23.6591 25.7114 23.0997C25.7114 23.0997 24.2475 23.3742 23.5335 23.6515C24.0716 23.1172 25.7904 22.7583 25.7904 22.7583C26.2566 22.1987 27.2376 18.3923 27.3365 17.2189C27.3612 16.9246 27.4185 16.564 27.3742 16.038C27.3742 16.038 25.9762 16.3441 25.6847 16.2382C25.9806 16.2049 27.4092 15.656 27.4092 15.656C27.6624 13.3761 27.7408 9.73697 26.9292 9.58931ZM21.8133 33.7334C21.7015 36.475 21.6313 37.2495 21.5159 37.896C21.4626 38.0165 21.4093 38.0362 21.3558 37.8826C20.8669 35.6338 20.9025 18.696 26.4758 10.9894C23.2344 16.9086 21.76 28.2667 21.8133 33.7334Z" fill="black"/>
</svg>
