<svg width="48" height="48" viewBox="0 0 48 48" fill="none" xmlns="http://www.w3.org/2000/svg">
<path d="M40.9104 10.614C46.7148 24.7824 40.9104 32.4 36 36.6C37.2 40.8 32.4168 41.6664 30.6 39.6C25.2516 41.4444 14.3856 41.3844 6.6 33.6C2.4 29.4 5.676 20.0568 16.8 13.8C26.4 8.39997 36 5.39997 40.9104 10.614Z" fill="#FFDB1E"/>
<path d="M16.8 13.8C25.0176 8.40359 34.83 6.14399 38.8416 9.63599C45 15 25.8 27.1344 18.6 30C10.8 33.1044 15 40.2 10.8 40.2C7.2 40.2 7.8 35.4 4.5804 30.9C2.6784 28.242 7.392 19.9776 16.8 13.8Z" fill="white" stroke="#FFDB1E"/>
<path d="M34.242 10.5264C39.816 12.0264 33.804 17.3604 29.0784 20.7696C24.6 24 21.1512 25.8216 19.5708 26.5656C19.1316 26.7732 17.6304 23.8632 17.6304 25.3656C17.6304 25.866 16.7904 28.0512 16.5096 28.1568C14.8716 28.7712 11.442 29.7048 9.5076 29.7048C5.3184 29.7048 7.2 24 13.1244 18.7584C14.1948 17.8116 14.898 17.9844 15.864 17.9844C15.2196 17.0568 15.2232 16.884 16.3476 16.1292C21.348 12.768 27.6 10.524 30.2544 10.104C30.6936 10.1208 31.2384 10.524 31.2384 10.8588C31.7304 10.6908 33.7524 10.3932 34.242 10.5252V10.5264Z" fill="#FFE600"/>
<path d="M17.1564 19.788C18.3384 18.8916 19.1292 18.576 19.6752 16.7568C20.3544 16.902 20.6844 16.6608 21.2232 15.9156C21.612 16.4748 23.2116 16.6452 24.1668 16.7568C23.3088 17.298 22.8984 17.7792 22.4244 19.284C20.6676 18.5508 18.624 18.9216 17.1564 19.788Z" fill="white"/>
</svg>
