<svg width="48" height="48" viewBox="0 0 48 48" fill="none" xmlns="http://www.w3.org/2000/svg">
<path d="M2.40488 11.0093V28.1185L9.96319 19.5983H10.3068L4.70672 25.9198L12.0933 36.7762H9.68831L3.33253 27.4314L2.40488 28.4964V36.7762H0V11.0093H2.40488ZM14.3447 28.3278C14.3447 22.754 17.9411 19.6501 22.6232 19.6501C26.9321 19.6501 30.6303 21.8528 30.6303 27.9273C30.6303 33.501 27.0338 36.6049 22.3518 36.6049C18.0428 36.6049 14.3447 34.4022 14.3447 28.3278ZM16.5756 28.3288C16.5756 34.2008 19.1534 36.3818 22.35 36.3818C25.7184 36.3818 28.3994 33.2948 28.3994 27.9262C28.3994 22.0542 25.8215 19.8731 22.625 19.8731C19.2565 19.8731 16.5756 22.9601 16.5756 28.3288ZM46.9678 36.5053C42.9058 36.5053 43.1056 34.1357 43.1056 34.1357V33.6684C42.4397 34.8699 41.1744 36.6388 37.8783 36.6388C33.9827 36.6388 33.3168 34.1691 33.117 32.834C32.7841 30.5978 33.5831 28.929 39.5097 28.5285C41.008 28.395 42.706 28.4617 43.1056 28.4951V22.9548C43.1056 22.9548 43.4719 19.951 39.6097 19.951C37.5453 19.951 34.9816 20.8188 34.1492 21.286L34.0161 21.0524C34.4488 20.8522 36.4798 19.6839 40.0424 19.6839C44.8702 19.6839 45.4363 21.82 45.4363 22.9549V34.1356C45.4363 36.305 46.9678 36.2382 46.9678 36.2382H48V36.5052L46.9678 36.5053ZM38.4608 36.4158C40.957 36.4158 42.9935 34.1435 43.0921 32.7869V28.6833C42.6979 28.6494 41.1541 28.5138 39.5118 28.7172C36.0303 29.1242 35.3405 30.3451 35.5375 32.8208C35.669 34.4827 36.1616 36.4158 38.4608 36.4158Z" fill="black"/>
</svg>
