<svg width="48" height="48" viewBox="0 0 48 48" fill="none" xmlns="http://www.w3.org/2000/svg">
<path d="M4 4L38.9369 41.0068C38.9369 41.0068 40.1273 41.8463 41.0373 40.8668C41.9475 39.8875 41.2474 38.9082 41.2474 38.9082L4.00016 4.00016L4 4ZM15.0622 7.49782L41.6675 36.1798C41.6675 36.1798 42.8577 37.0194 43.768 36.0399C44.6782 35.0606 43.978 34.0813 43.978 34.0813L15.0622 7.49782ZM7.29062 14.9832L33.8958 43.6651C33.8958 43.6651 35.086 44.5046 35.9962 43.5252C36.9064 42.5458 36.2063 41.5665 36.2063 41.5665L7.29062 14.9832ZM24.4137 10.5059L43.0014 30.5443C43.0014 30.5443 43.8331 31.1308 44.4689 30.4466C45.1047 29.7623 44.6156 29.0781 44.6156 29.0781L24.4137 10.5059ZM9.85094 23.6577L28.4385 43.6961C28.4385 43.6961 29.2702 44.2826 29.906 43.5983C30.5418 42.9141 30.0527 42.2299 30.0527 42.2299L9.85094 23.6577ZM33.966 14.8432L42.3905 23.9529C42.3905 23.9529 42.8019 24.2277 43.1163 23.907C43.4308 23.5865 43.189 23.2658 43.189 23.2658L33.966 14.8432ZM14.5021 32.8918L22.9266 42.0015C22.9266 42.0015 23.338 42.2764 23.6524 41.9558C23.9669 41.6351 23.7251 41.3146 23.7251 41.3146L14.5021 32.8918Z" fill="#DF4F4F"/>
</svg>
