<svg width="48" height="48" viewBox="0 0 48 48" fill="none" xmlns="http://www.w3.org/2000/svg">
<path d="M36.0128 29.2199C35.9967 35.8659 30.5791 41.2687 23.9229 41.2687C17.2562 41.2687 11.832 35.8498 11.832 29.1896L11.8358 29.1282C8.34398 27.0077 6 23.1818 6 18.8104C6 12.1493 11.4232 6.73132 18.0908 6.73132C20.237 6.73132 22.2498 7.29949 23.9995 8.28363C25.7492 7.29949 27.763 6.73132 29.9092 6.73132C36.5768 6.73132 42 12.1502 42 18.8104C42 23.2451 39.5888 27.1193 36.0128 29.2199ZM23.9995 10.822C21.8117 12.4414 20.3033 14.9258 20.0062 17.7724C21.2363 17.3488 22.5507 17.1087 23.9229 17.1087C25.3556 17.1087 26.7239 17.3715 27.9986 17.831C27.7166 14.9599 26.2025 12.4527 23.9995 10.822ZM14.0596 27.8983C15.2926 28.4456 16.6553 28.7576 18.0908 28.7576C19.4866 28.7576 20.8152 28.4674 22.0218 27.9465C20.0213 26.2202 18.5877 23.8577 18.052 21.171C15.9106 22.7422 14.4202 25.1415 14.0596 27.8983ZM23.9229 19.2415C22.5441 19.2415 21.2297 19.5232 20.0345 20.0327C20.3762 22.8008 21.8599 25.2153 23.9995 26.7988C26.1221 25.2276 27.5973 22.8405 27.955 20.1008C26.7211 19.5515 25.3584 19.2415 23.9229 19.2415ZM25.9773 27.9474C27.1838 28.4674 28.5124 28.7585 29.9082 28.7585C31.287 28.7585 32.6014 28.4768 33.7975 27.9673C33.4606 25.2399 32.0156 22.8585 29.9281 21.2721C29.3773 23.9182 27.9532 26.242 25.9773 27.9474ZM23.9229 39.1369C29.0632 39.1369 33.3054 35.2259 33.8268 30.2267C32.5966 30.6493 31.2822 30.8904 29.9092 30.8904C27.763 30.8904 25.7492 30.3222 23.9995 29.3381C22.2508 30.3222 20.238 30.8904 18.0908 30.8904C16.6581 30.8904 15.2898 30.6276 14.0151 30.169C14.5101 35.1956 18.7637 39.1369 23.9229 39.1369ZM18.0908 8.8622C12.5995 8.8622 8.13295 13.3244 8.13295 18.8104C8.13295 22.0417 9.68961 24.909 12.0856 26.7279C12.7897 23.3425 14.9236 20.4818 17.8193 18.7792C17.8297 15.1423 19.4611 11.8846 22.0227 9.67427C20.8152 9.15243 19.4876 8.8622 18.0908 8.8622ZM29.9092 8.8622C28.5134 8.8622 27.1848 9.15243 25.9782 9.67333C28.5474 11.8902 30.1836 15.1603 30.1836 18.8094L30.1798 18.8709C33.0253 20.6 35.1091 23.4578 35.78 26.8271C38.2527 25.0149 39.867 22.1012 39.867 18.8104C39.8661 13.3253 35.3996 8.8622 29.9092 8.8622Z" fill="#010002"/>
</svg>
