<svg width="48" height="48" viewBox="0 0 48 48" fill="none" xmlns="http://www.w3.org/2000/svg">
<path d="M22.6874 4.01076C22.6014 4.01858 22.3277 4.04595 22.0814 4.0655C16.4009 4.57764 11.0801 7.64268 7.71011 12.3536C5.83355 14.973 4.63334 17.9442 4.17984 21.0913C4.01955 22.1899 4 22.5144 4 24.0039C4 25.4934 4.01955 25.8179 4.17984 26.9165C5.26668 34.4266 10.611 40.7365 17.8592 43.0744C19.1571 43.4927 20.5254 43.7781 22.0814 43.9502C22.6874 44.0166 25.3067 44.0166 25.9127 43.9502C28.5985 43.653 30.8739 42.9884 33.1179 41.8429C33.4619 41.667 33.5284 41.6201 33.4815 41.581C33.4502 41.5575 31.9842 39.5911 30.2249 37.2141L27.0269 32.8941L23.0197 26.9634C20.8147 23.7029 19.0007 21.0366 18.9851 21.0366C18.9695 21.0327 18.9538 23.6677 18.946 26.8852C18.9343 32.5188 18.9304 32.7455 18.86 32.8785C18.7583 33.07 18.6801 33.1482 18.516 33.2342C18.3908 33.2968 18.2814 33.3085 17.691 33.3085H17.0147L16.8349 33.1951C16.7176 33.1209 16.6316 33.0231 16.5729 32.9097L16.4908 32.7338L16.4987 24.8953L16.5104 17.0528L16.6316 16.9004C16.6941 16.8183 16.8271 16.7127 16.9209 16.6619C17.0812 16.5837 17.1437 16.5759 17.8201 16.5759C18.6176 16.5759 18.7505 16.6072 18.9577 16.8339C19.0164 16.8965 21.1861 20.1648 23.782 24.1017C26.3779 28.0385 29.9278 33.4141 31.6714 36.053L34.8381 40.8499L34.9984 40.7444C36.4175 39.8217 37.9188 38.5081 39.1073 37.1398C41.6367 34.2351 43.267 30.6931 43.8143 26.9165C43.9746 25.8179 43.9941 25.4934 43.9941 24.0039C43.9941 22.5144 43.9746 22.1899 43.8143 21.0913C42.7274 13.5812 37.3832 7.27128 30.135 4.9334C28.8566 4.519 27.4961 4.23361 25.9714 4.06159C25.596 4.02249 23.0119 3.97949 22.6874 4.01076ZM30.8739 16.1067C31.0615 16.2006 31.214 16.3804 31.2687 16.5681C31.3 16.6697 31.3078 18.8434 31.3 23.742L31.2883 30.7712L30.049 28.8712L28.8057 26.9712V21.8615C28.8057 18.558 28.8214 16.701 28.8448 16.6111C28.9074 16.3921 29.0442 16.2201 29.2319 16.1185C29.3922 16.0364 29.4508 16.0285 30.0646 16.0285C30.6432 16.0285 30.7449 16.0364 30.8739 16.1067Z" fill="black"/>
<path d="M34.6426 40.9359C34.5058 41.0219 34.4628 41.0806 34.584 41.0141C34.67 40.9633 34.8107 40.8577 34.7873 40.8538C34.7755 40.8538 34.7091 40.8929 34.6426 40.9359ZM34.3729 41.1118C34.3025 41.1666 34.3025 41.1705 34.3885 41.1275C34.4354 41.104 34.4745 41.0767 34.4745 41.0688C34.4745 41.0376 34.455 41.0454 34.3729 41.1118ZM34.1774 41.2291C34.107 41.2839 34.107 41.2878 34.193 41.2448C34.2399 41.2213 34.279 41.1939 34.279 41.1861C34.279 41.1549 34.2595 41.1627 34.1774 41.2291ZM33.9819 41.3464C33.9115 41.4011 33.9115 41.4051 33.9975 41.3621C34.0445 41.3386 34.0836 41.3112 34.0836 41.3034C34.0836 41.2721 34.064 41.28 33.9819 41.3464ZM33.6848 41.5028C33.5362 41.581 33.544 41.6123 33.6926 41.538C33.7591 41.5028 33.8099 41.4676 33.8099 41.4598C33.8099 41.4324 33.806 41.4363 33.6848 41.5028Z" fill="black"/>
</svg>
