<svg width="48" height="48" viewBox="0 0 48 48" fill="none" xmlns="http://www.w3.org/2000/svg">
<path d="M24.3207 4L41.6414 14V34L24.3207 44L7 34V14L24.3207 4Z" fill="#673AB8"/>
<path d="M11.7178 33.8347C14.0205 36.782 21.3383 34.5363 28.2469 29.1386C35.1556 23.7409 39.105 17.1838 36.8023 14.2366C34.4996 11.2893 27.1819 13.535 20.2732 18.9327C13.3645 24.3303 9.41517 30.8874 11.7178 33.8347ZM12.7015 33.0661C11.9379 32.0887 12.2715 30.1699 13.7264 27.7544C15.2584 25.2108 17.8592 22.4029 21.0417 19.9164C24.2243 17.4298 27.578 15.5857 30.4167 14.7145C33.1125 13.8872 35.0549 14.0277 35.8186 15.0051C36.5823 15.9826 36.2486 17.9013 34.7937 20.3169C33.2617 22.8605 30.661 25.6684 27.4784 28.1549C24.2958 30.6414 20.9421 32.4856 18.1035 33.3567C15.4077 34.184 13.4652 34.0436 12.7015 33.0661Z" fill="white"/>
<path d="M36.8023 33.8347C39.105 30.8874 35.1556 24.3303 28.2469 18.9327C21.3383 13.535 14.0205 11.2893 11.7178 14.2366C9.41517 17.1838 13.3645 23.7409 20.2732 29.1386C27.1819 34.5363 34.4996 36.782 36.8023 33.8347ZM35.8186 33.0661C35.0549 34.0436 33.1125 34.184 30.4167 33.3567C27.578 32.4856 24.2243 30.6414 21.0417 28.1549C17.8592 25.6684 15.2584 22.8605 13.7264 20.3169C12.2715 17.9013 11.9379 15.9826 12.7015 15.0051C13.4652 14.0277 15.4077 13.8872 18.1035 14.7145C20.9421 15.5857 24.2958 17.4298 27.4784 19.9164C30.661 22.4029 33.2617 25.2108 34.7937 27.7544C36.2486 30.1699 36.5823 32.0887 35.8186 33.0661Z" fill="white"/>
<path d="M24.2601 26.6884C25.7251 26.6884 26.9128 25.5007 26.9128 24.0357C26.9128 22.5706 25.7251 21.3829 24.2601 21.3829C22.795 21.3829 21.6074 22.5706 21.6074 24.0357C21.6074 25.5007 22.795 26.6884 24.2601 26.6884Z" fill="white"/>
</svg>
