<svg width="48" height="48" viewBox="0 0 48 48" fill="none" xmlns="http://www.w3.org/2000/svg">
<path fill-rule="evenodd" clip-rule="evenodd" d="M38.0865 33.7625C38.4103 37.9219 38.4103 39.8717 38.4103 42H28.7865C28.7865 41.5364 28.7948 41.1123 28.8032 40.6823C28.8292 39.3455 28.8564 37.9515 28.6398 35.1363C28.3536 31.0148 26.5787 30.099 23.3154 30.099H20.4241H8.17932V22.6003H23.7734C27.8955 22.6003 29.9567 21.3463 29.9567 18.0262C29.9567 15.1069 27.8955 13.3378 23.7734 13.3378H8.17932V6H25.491C34.8231 6 39.4605 10.4077 39.4605 17.4485C39.4605 22.7147 36.1971 26.1493 31.7887 26.7217C35.5101 27.4658 37.6857 29.5838 38.0865 33.7625Z" fill="#121212"/>
<path d="M8.17932 42V36.4099H18.355C20.0547 36.4099 20.4237 37.6705 20.4237 38.4223V42H8.17932Z" fill="#121212"/>
</svg>
