<svg width="48" height="48" viewBox="0 0 48 48" fill="none" xmlns="http://www.w3.org/2000/svg">
<path d="M38.1617 9.29238C34.4474 3.97638 27.1115 2.40069 21.8076 5.77993L12.4945 11.717C11.2358 12.5084 10.156 13.5539 9.32432 14.7864C8.49265 16.019 7.92736 17.4116 7.6646 18.8751C7.22037 21.3399 7.61098 23.8825 8.77459 26.1004C7.97713 27.3099 7.4332 28.6686 7.17568 30.0942C6.9104 31.5871 6.94586 33.1179 7.27997 34.5968C7.61407 36.0758 8.24011 37.4731 9.12137 38.707C12.8356 44.0237 20.1719 45.5997 25.4751 42.2194L34.7903 36.2824C36.0488 35.4908 37.1282 34.4453 37.9595 33.2127C38.7908 31.9801 39.3557 30.5876 39.6181 29.1242C40.0631 26.6596 39.6735 24.117 38.511 21.8986C39.3079 20.6891 39.8514 19.3306 40.1088 17.9051C40.3744 16.4123 40.3392 14.8815 40.0051 13.4025C39.671 11.9235 39.0449 10.5261 38.1635 9.29238" fill="#FF3E00"/>
<path d="M20.8976 39.2073C19.4317 39.5884 17.8842 39.5104 16.464 38.9839C15.0438 38.4575 13.8193 37.5079 12.956 36.2634C12.4261 35.5216 12.0497 34.6814 11.8488 33.7922C11.6479 32.9029 11.6265 31.9825 11.786 31.0849C11.84 30.7902 11.9143 30.4997 12.0085 30.2153L12.1838 29.6796L12.6613 30.0299C13.7631 30.84 14.995 31.456 16.3041 31.8513L16.6502 31.9563L16.6184 32.302C16.5764 32.7933 16.7096 33.2836 16.9945 33.686C17.2544 34.0611 17.6233 34.3474 18.0513 34.5061C18.4792 34.6649 18.9456 34.6884 19.3873 34.5734C19.5894 34.5197 19.7821 34.4354 19.9587 34.3234L29.2736 28.3857C29.5016 28.2422 29.6971 28.0528 29.8478 27.8295C29.9986 27.6062 30.1011 27.354 30.1489 27.0889C30.1967 26.8183 30.1901 26.5409 30.1295 26.2729C30.069 26.0049 29.9556 25.7516 29.7961 25.5279C29.5361 25.1527 29.1672 24.8664 28.7393 24.7076C28.3114 24.5487 27.8451 24.525 27.4033 24.6397C27.2012 24.6934 27.0085 24.7777 26.8318 24.8896L23.2773 27.1557C22.6923 27.5273 22.054 27.8075 21.3844 27.9864C19.9185 28.3675 18.3709 28.2895 16.9507 27.7631C15.5305 27.2366 14.3061 26.287 13.4427 25.0425C12.9127 24.3007 12.5362 23.4606 12.3352 22.5713C12.1342 21.6821 12.1129 20.7616 12.2724 19.864C12.4307 18.984 12.7709 18.1466 13.2713 17.4056C13.7717 16.6646 14.4213 16.0361 15.1784 15.5605L24.4944 9.62379C25.0792 9.25162 25.7175 8.97112 26.3872 8.79202C27.8531 8.41097 29.4007 8.48894 30.8209 9.01539C32.2411 9.54184 33.4655 10.4914 34.3289 11.7359C34.8588 12.4777 35.2353 13.3179 35.4363 14.2071C35.6372 15.0964 35.6586 16.0168 35.4992 16.9144C35.4448 17.209 35.3703 17.4996 35.2764 17.784L35.101 18.3197L34.6239 17.9701C33.5222 17.1599 32.2902 16.5439 30.9811 16.1487L30.6346 16.0437L30.6668 15.698C30.7087 15.2065 30.5757 14.716 30.2911 14.313C30.0311 13.9379 29.6622 13.6516 29.2343 13.4929C28.8063 13.3342 28.34 13.3107 27.8983 13.4255C27.6962 13.4793 27.5035 13.5636 27.3268 13.6755L18.0095 19.6137C17.7815 19.757 17.586 19.9464 17.4354 20.1696C17.2848 20.3928 17.1825 20.645 17.1348 20.9101C17.0868 21.1807 17.0932 21.4581 17.1537 21.7262C17.2142 21.9943 17.3275 22.2477 17.487 22.4715C17.747 22.8466 18.1159 23.1329 18.5438 23.2917C18.9717 23.4505 19.438 23.4742 19.8798 23.3597C20.0818 23.3058 20.2745 23.2215 20.4512 23.1097L24.0055 20.8447C24.5902 20.4724 25.2285 20.192 25.8983 20.0133C27.3642 19.6322 28.9117 19.7102 30.3318 20.2366C31.752 20.7631 32.9763 21.7127 33.8396 22.9572C34.3696 23.699 34.7462 24.5391 34.9471 25.4284C35.1481 26.3176 35.1695 27.2381 35.0099 28.1357C34.852 29.0157 34.5121 29.8531 34.0122 30.5944C33.5122 31.3356 32.8632 31.9644 32.1064 32.4406L22.7905 38.3755C22.2057 38.7478 21.5673 39.0283 20.8976 39.2073Z" fill="white"/>
</svg>
